<?xml version="1.0" encoding="utf-8"?>
<!-- Generator: Adobe Illustrator 25.4.1, SVG Export Plug-In . SVG Version: 6.00 Build 0)  -->
<svg version="1.1" id="Layer_1" xmlns="http://www.w3.org/2000/svg" xmlns:xlink="http://www.w3.org/1999/xlink" x="0px" y="0px"
	 viewBox="0 0 130 130" style="enable-background:new 0 0 130 130;" xml:space="preserve">
<style type="text/css">
	.st0{display:none;}
	.st1{display:inline;}
	.st2{fill:#006AFF;}
	.st3{display:inline;fill:#006AFF;}
	.st4{display:none;fill:#006AFF;}
</style>
<g class="st0">
	<g class="st1">
		<polygon class="st2" points="-9.4,62.5 66.8,1.7 148.1,55.1 66.5,-10.5 -21.2,46.5 		"/>
		<path class="st2" d="M3.8,22.8C4.2,22.6,26.1,8.4,26.1,8.4v-18.9H3.8V22.8z"/>
		<polygon class="st2" points="9,57.3 20.8,47.9 20.8,117.6 9.5,117.6 		"/>
	</g>
	<polygon class="st3" points="115.5,42.2 121.4,46 121.4,117.6 115.7,117.6 	"/>
</g>
<polygon class="st4" points="76.7,117.6 57.5,117.6 57.5,80.8 67.1,73.1 76.7,79.4 "/>
<rect x="540.2" y="219.1" style="fill:none;" width="0" height="2.6"/>
<g>
	<polygon class="st2" points="48.8,16.6 130,70.7 130,48.4 65.5,4.9 	"/>
	<polygon class="st2" points="33.4,27.5 0,49.4 0,70.7 33.4,49.4 108.3,99.3 108.3,125.1 130,125.1 130,92.3 	"/>
	<polygon class="st2" points="32.6,70.7 48.8,81.9 22.4,100.7 22.4,125.1 0,125.1 0,91.5 	"/>
</g>
</svg>
