<?xml version="1.0" encoding="utf-8"?>
<!-- Generator: Adobe Illustrator 25.4.1, SVG Export Plug-In . SVG Version: 6.00 Build 0)  -->
<svg version="1.1" id="Layer_1" xmlns="http://www.w3.org/2000/svg" xmlns:xlink="http://www.w3.org/1999/xlink" x="0px" y="0px"
	 viewBox="0 0 700.2 166.4" style="enable-background:new 0 0 700.2 166.4;" xml:space="preserve">
<style type="text/css">
	.st0{display:none;}
	.st1{display:inline;}
	.st2{fill:#006AFF;}
	.st3{display:inline;fill:#006AFF;}
	.st4{display:none;fill:#006AFF;}
</style>
<g class="st0">
	<g class="st1">
		<polygon class="st2" points="-9.6,76.1 66.5,15.3 147.9,68.7 66.3,3.1 -21.4,60.1 		"/>
		<path class="st2" d="M3.6,36.4C3.9,36.2,25.9,22,25.9,22V3.1H3.6V36.4z"/>
		<polygon class="st2" points="8.8,70.9 20.6,61.5 20.6,131.2 9.2,131.2 		"/>
	</g>
	<polygon class="st3" points="115.3,55.7 121.2,59.6 121.2,131.2 115.5,131.2 	"/>
</g>
<polygon class="st4" points="76.4,131.2 57.2,131.2 57.2,94.3 66.8,86.7 76.4,93 "/>
<rect x="540" y="232.7" style="fill:none;" width="0" height="2.6"/>
<g>
	<polygon class="st2" points="229,73.2 187.1,73.2 187.1,32.5 165.5,32.5 165.5,133.3 187.1,133.3 187.1,92.8 229,92.8 229,133.3 
		250.6,133.3 250.6,32.5 229,32.5 	"/>
	<path class="st2" d="M326,60.7c-6.1-3.5-13-5.2-20.7-5.2c-7.8,0-14.7,1.7-20.8,5.2c-6.1,3.5-10.9,8.1-14.4,14
		c-3.5,5.9-5.3,12.7-5.3,20.4c0,7.7,1.8,14.5,5.3,20.4c3.5,6,8.3,10.6,14.4,14c6.1,3.4,13,5.1,20.8,5.1c7.7,0,14.6-1.7,20.7-5.1
		c6.1-3.4,10.9-8.1,14.3-14c3.5-6,5.2-12.8,5.2-20.4c0-7.7-1.7-14.5-5.2-20.4S332.1,64.2,326,60.7z M322.4,106.3
		c-1.7,3.3-4,5.9-7,7.8c-3,1.9-6.3,2.8-10.1,2.8c-3.8,0-7.2-0.9-10.2-2.8c-3-1.9-5.3-4.5-7.1-7.8c-1.7-3.3-2.5-7-2.4-11.2
		c-0.1-4.2,0.7-8,2.4-11.2c1.7-3.3,4.1-5.9,7.1-7.8c3-1.9,6.4-2.9,10.2-2.9c3.7,0,7.1,0.9,10.1,2.8c3,1.9,5.3,4.5,7,7.8
		c1.7,3.3,2.5,7.1,2.5,11.3C324.9,99.2,324,103,322.4,106.3z"/>
	<path class="st2" d="M405.5,100.7c0,3.5-0.6,6.5-1.7,9c-1.2,2.5-2.8,4.5-4.9,5.8c-2.1,1.3-4.7,2-7.8,2s-5.7-0.7-7.8-2
		c-2.1-1.3-3.7-3.3-4.9-5.8c-1.2-2.5-1.7-5.5-1.7-9V57.1h-20.4V104c0,6.4,1.1,11.9,3.2,16.5c2.2,4.6,5.2,8.1,9.2,10.5
		c4,2.4,8.7,5.3,14.3,5.8c2,0.2,2.7,0.5,8.1,0.5s6.3-0.3,8.2-0.4c5.6-0.4,10.2-3.5,14.2-5.9c4-2.4,7.1-6,9.2-10.5
		c2.2-4.6,3.2-10.1,3.2-16.5V57.1h-20.4V100.7z"/>
	<path class="st2" d="M494.8,97.1c-1.9-2-4.5-3.8-7.7-5.3c-3.2-1.5-7.1-2.9-11.7-4.2c-3.6-1-6.4-1.8-8.4-2.6c-2.1-0.8-3.6-1.4-4.7-2
		c-1-0.7-1.7-1.5-2.2-2.4c-0.5-1-0.8-2-0.8-3c0-1.1,0.2-2,0.6-3c0.4-0.9,1.1-1.7,1.9-2.2c0.9-0.6,1.9-1,3.2-1.3s2.8-0.4,4.4-0.4
		c1.8,0,3.9,0.4,6.2,1.2c2.3,0.8,4.5,1.8,6.7,3.2c2.2,1.3,4.1,2.8,5.8,4.5l10.9-12.1c-2.4-2.4-5.2-4.5-8.4-6.3
		c-3.2-1.8-6.7-3.1-10.4-4.1c-3.7-1-7.6-1.4-11.5-1.4c-3.9,0-7.7,0.6-11.2,1.7c-3.6,1.1-6.7,2.7-9.4,4.7c-2.7,2-4.9,4.4-6.4,7.3
		c-1.5,2.8-2.3,6-2.3,9.4c0,2.9,0.5,5.5,1.4,7.8c0.9,2.4,2.2,4.5,4,6.6c2,2.1,4.7,4,8.1,5.7c3.4,1.7,7.6,3.1,12.5,4.4
		c3.2,0.9,5.8,1.7,7.8,2.4c2,0.7,3.5,1.3,4.5,1.8c1.7,1.2,2.6,2.9,2.6,5c0,1.1-0.2,2-0.6,3c-0.4,0.9-1.1,1.7-1.9,2.3
		c-0.9,0.6-1.9,1.1-3.1,1.4c-1.2,0.3-2.5,0.5-4,0.5c-3.6,0-7.3-0.7-10.9-2.1c-3.6-1.4-7-3.7-9.9-6.8l-12.7,10.9
		c3.4,4.1,7.8,7.4,13.3,9.7c5.5,2.4,11.8,3.5,18.9,3.5c5.8,0,10.9-1,15.6-3.1c4.6-2.1,8.2-4.9,10.9-8.6c2.6-3.7,4-7.9,4-12.6
		c0-2.7-0.4-5.1-1.2-7.3C497.6,100.8,496.4,98.9,494.8,97.1z"/>
	<path class="st2" d="M569.6,66.2c-3.2-3.4-7-6-11.4-7.9c-4.4-1.9-9.2-2.8-14.4-2.8c-5.6,0-10.7,1-15.5,3c-4.8,2-8.9,4.8-12.3,8.4
		c-3.5,3.6-6.1,7.8-8.1,12.7c-1.9,4.9-2.9,10.3-2.9,16.1c0,7.6,1.7,14.3,5.2,20.2c3.5,5.9,8.3,10.5,14.4,13.8c6.1,3.4,13.3,5,21.6,5
		c3.5,0,7-0.4,10.5-1.3c3.6-0.9,7-2.1,10.4-3.8c3.4-1.7,6.4-3.8,9.2-6.3l-9.8-13.7c-3.2,2.6-6.1,4.4-8.9,5.5
		c-2.8,1.1-5.9,1.6-9.2,1.6c-4.9,0-9.1-0.9-12.7-2.8c-3.6-1.9-6.4-4.5-8.4-7.8c-1.1-1.9-1.9-4-2.4-6.3h54.3l0.1-6.3
		c0.2-5.5-0.6-10.5-2.3-15.1C575.3,73.7,572.8,69.6,569.6,66.2z M533.3,75.4c2.9-1.6,6.5-2.4,10.7-2.4c2.9,0,5.5,0.6,7.8,1.7
		c2.3,1.2,4.2,2.8,5.7,4.9c1.5,2.1,2.3,4.5,2.5,7.1v0.6h-35c0.4-1.7,0.9-3.2,1.6-4.6C528.2,79.4,530.4,77,533.3,75.4z"/>
	<rect x="590.6" y="26.7" class="st2" width="20.4" height="106.6"/>
	<path class="st2" d="M676.9,57.1l-14.6,40.6c-0.7,2.2-1.4,4.3-2.2,6.3c-0.2-0.6-0.3-1.1-0.5-1.7c-0.7-2.2-1.5-4.1-2.2-5.7
		l-16.1-39.6h-23.2l31.9,71.6l-15.6,37.7h20.7l13.1-33.1l32-76.2H676.9z"/>
</g>
<g>
	<polygon class="st2" points="48.6,24.9 129.5,79 129.5,56.6 65.3,13.2 	"/>
	<polygon class="st2" points="33.3,35.7 0,57.7 0,79 33.3,57.7 107.9,107.6 107.9,133.3 129.5,133.3 129.5,100.6 	"/>
	<polygon class="st2" points="32.5,79 48.6,90.2 22.4,108.9 22.4,133.3 0,133.3 0,99.8 	"/>
</g>
</svg>
