<?xml version="1.0" encoding="utf-8"?>
<!-- Generator: Adobe Illustrator 25.4.1, SVG Export Plug-In . SVG Version: 6.00 Build 0)  -->
<svg version="1.1" id="Layer_1" xmlns="http://www.w3.org/2000/svg" xmlns:xlink="http://www.w3.org/1999/xlink" x="0px" y="0px"
	 viewBox="0 0 512 512" style="enable-background:new 0 0 512 512;" xml:space="preserve">
<style type="text/css">
	.st0{fill:#FFFFFF;}
</style>
<path class="st0" d="M48,256c0-114.9,93.1-208,208-208c63.1,0,119.6,28.1,157.8,72.5c8.6,10.1,23.8,11.2,33.8,2.6
	s11.2-23.8,2.6-33.8C403.3,34.6,333.7,0,256,0C114.6,0,0,114.6,0,256v40c0,13.3,10.7,24,24,24s24-10.7,24-24V256z M506.5,203.1
	c-2.7-13-15.5-21.3-28.4-18.5s-21.3,15.5-18.5,28.4c2.9,13.9,4.5,28.3,4.5,43.1v40c0,13.3,10.7,24,24,24s24-10.7,24-24V256
	C512.1,237.9,510.2,220.2,506.5,203.1L506.5,203.1z M256,80c-19,0-37.4,3-54.5,8.6c-15.2,5-18.7,23.7-8.3,35.9
	c7.1,8.3,18.8,10.8,29.4,7.9c10.6-2.9,21.8-4.4,33.4-4.4c70.7,0,128,57.3,128,128v24.9c0,25.2-1.5,50.3-4.4,75.3
	c-1.7,14.6,9.4,27.8,24.2,27.8c11.8,0,21.9-8.6,23.3-20.3c3.3-27.4,5-55,5-82.7v-25c0-97.2-78.8-176-176-176H256z M150.7,148.7
	c-9.1-10.6-25.3-11.4-33.9-0.4C93.7,178,80,215.4,80,256v24.9c0,24.2-2.6,48.4-7.8,71.9c-3.4,15.6,7.9,31.2,23.9,31.2
	c10.5,0,19.9-7,22.2-17.3c6.4-28.1,9.7-56.8,9.7-85.8V256c0-27.2,8.5-52.4,22.9-73.1C158.1,172.5,158.9,158.3,150.7,148.7z M256,160
	c-53,0-96,43-96,96v24.9c0,35.9-4.6,71.5-13.8,106.1c-3.8,14.3,6.7,29,21.5,29c9.5,0,17.9-6.2,20.4-15.4
	c10.5-39,15.9-79.2,15.9-119.7V256c0-28.7,23.3-52,52-52s52,23.3,52,52v24.9c0,36.3-3.5,72.4-10.4,107.9
	c-2.7,13.9,7.7,27.2,21.8,27.2c10.2,0,19-7,21-17c7.7-38.8,11.6-78.3,11.6-118.1V256C352,203,309,160,256,160z M280,256
	c0-13.3-10.7-24-24-24s-24,10.7-24,24v24.9c0,59.9-11,119.3-32.5,175.2l-5.9,15.3c-4.8,12.4,1.4,26.3,13.8,31s26.3-1.4,31-13.8
	l5.9-15.3c23.6-61.4,35.7-126.6,35.7-192.4V256z"/>
</svg>
