<?xml version="1.0" standalone="no"?>
<!DOCTYPE svg PUBLIC "-//W3C//DTD SVG 20010904//EN"
 "http://www.w3.org/TR/2001/REC-SVG-20010904/DTD/svg10.dtd">
<svg version="1.0" xmlns="http://www.w3.org/2000/svg"
 width="512.000000pt" height="512.000000pt" viewBox="0 0 512.000000 512.000000"
 preserveAspectRatio="xMidYMid meet">

<g transform="translate(0.000000,512.000000) scale(0.100000,-0.100000)"
fill="#000000" stroke="none">
<path d="M4183 5095 c-94 -26 -134 -55 -292 -210 l-156 -152 -39 28 c-21 16
-48 29 -60 29 -52 0 -570 -91 -596 -105 -16 -8 -34 -24 -40 -34 -17 -33 -11
-86 13 -120 43 -60 642 -669 675 -686 42 -21 90 -14 121 19 19 20 34 77 82
317 33 161 56 302 53 313 -4 12 -18 36 -31 55 l-26 33 129 130 c71 71 148 141
172 155 89 53 209 23 264 -64 l23 -38 3 -1097 2 -1098 -2117 -2 -2118 -3 -55
-26 c-202 -96 -250 -358 -95 -514 21 -21 62 -48 90 -61 l52 -24 146 -511 c89
-312 158 -534 178 -572 81 -161 208 -283 375 -357 68 -31 184 -60 238 -60 20
0 36 -2 36 -5 0 -2 -31 -68 -70 -146 -38 -78 -70 -154 -70 -170 0 -90 100
-142 167 -85 17 15 65 98 123 215 l95 191 1105 0 1105 0 95 -191 c58 -117 106
-200 123 -215 67 -57 167 -5 167 85 0 16 -31 92 -70 170 -38 78 -70 144 -70
146 0 3 16 5 36 5 19 0 67 7 106 16 247 56 455 241 541 480 13 38 84 279 157
536 l132 468 52 23 c198 91 245 356 90 511 -62 62 -132 89 -241 94 l-93 4 0
1107 0 1106 -24 58 c-49 117 -128 197 -234 237 -74 28 -181 34 -249 15z m-529
-594 l69 -69 -23 -119 c-13 -65 -26 -126 -29 -136 -6 -15 -41 18 -180 163 -96
99 -172 182 -170 184 3 3 222 41 254 45 6 0 41 -30 79 -68z m1217 -2177 c50
-50 41 -134 -19 -165 -38 -21 -4546 -21 -4584 0 -57 30 -69 113 -23 161 15 16
37 31 49 33 11 3 1039 4 2283 3 l2263 -1 31 -31z m-222 -426 c-5 -18 -63 -224
-130 -458 -76 -266 -134 -452 -156 -497 -64 -133 -204 -242 -354 -278 -96 -22
-2802 -22 -2898 0 -150 36 -290 145 -354 278 -22 45 -80 231 -156 497 -67 234
-125 440 -130 458 l-10 32 2099 0 2099 0 -10 -32z"/>
<path d="M827 1699 c-21 -12 -47 -61 -47 -89 0 -33 146 -534 169 -578 47 -92
168 -165 274 -166 40 0 53 5 79 31 25 25 31 39 31 74 0 35 -6 48 -30 69 -17
15 -48 30 -69 34 -50 9 -80 29 -97 64 -8 15 -45 137 -83 271 -79 280 -91 301
-166 301 -23 0 -51 -5 -61 -11z"/>
<path d="M2915 3928 c-141 -142 -155 -165 -130 -224 17 -42 51 -64 99 -64 37
0 47 8 163 123 69 67 131 135 140 151 34 66 -20 146 -99 146 -40 0 -47 -6
-173 -132z"/>
<path d="M2403 3834 c-47 -23 -259 -245 -265 -277 -16 -82 47 -144 130 -129
18 3 70 47 154 131 102 102 128 133 133 162 9 46 -14 93 -55 114 -37 19 -57
19 -97 -1z"/>
<path d="M2713 3298 c-158 -156 -169 -176 -138 -243 18 -37 51 -55 102 -55 33
0 48 11 168 133 81 80 134 142 137 157 12 70 -36 130 -105 130 -38 0 -47 -7
-164 -122z"/>
</g>
</svg>
