<?xml version="1.0" encoding="utf-8"?>
<!-- Generator: Adobe Illustrator 25.4.1, SVG Export Plug-In . SVG Version: 6.00 Build 0)  -->
<svg version="1.1" id="Layer_1" xmlns="http://www.w3.org/2000/svg" xmlns:xlink="http://www.w3.org/1999/xlink" x="0px" y="0px"
	 viewBox="0 0 512 512" style="enable-background:new 0 0 512 512;" xml:space="preserve">
<style type="text/css">
	.st0{fill:#006AFF;}
</style>
<g transform="translate(0.000000,512.000000) scale(0.100000,-0.100000)">
	<path class="st0" d="M4183,5095c-94-26-134-55-292-210l-156-152l-39,28c-21,16-48,29-60,29c-52,0-570-91-596-105c-16-8-34-24-40-34
		c-17-33-11-86,13-120c43-60,642-669,675-686c42-21,90-14,121,19c19,20,34,77,82,317c33,161,56,302,53,313c-4,12-18,36-31,55l-26,33
		l129,130c71,71,148,141,172,155c89,53,209,23,264-64l23-38l3-1097l2-1098l-2117-2l-2118-3l-55-26c-202-96-250-358-95-514
		c21-21,62-48,90-61l52-24l146-511c89-312,158-534,178-572c81-161,208-283,375-357c68-31,184-60,238-60c20,0,36-2,36-5
		c0-2-31-68-70-146c-38-78-70-154-70-170c0-90,100-142,167-85c17,15,65,98,123,215l95,191h1105h1105l95-191c58-117,106-200,123-215
		c67-57,167-5,167,85c0,16-31,92-70,170c-38,78-70,144-70,146c0,3,16,5,36,5c19,0,67,7,106,16c247,56,455,241,541,480
		c13,38,84,279,157,536l132,468l52,23c198,91,245,356,90,511c-62,62-132,89-241,94l-93,4v1107v1106l-24,58c-49,117-128,197-234,237
		C4358,5108,4251,5114,4183,5095z M3654,4501l69-69l-23-119c-13-65-26-126-29-136c-6-15-41,18-180,163c-96,99-172,182-170,184
		c3,3,222,41,254,45C3581,4569,3616,4539,3654,4501z M4871,2324c50-50,41-134-19-165c-38-21-4546-21-4584,0c-57,30-69,113-23,161
		c15,16,37,31,49,33c11,3,1039,4,2283,3l2263-1L4871,2324z M4649,1898c-5-18-63-224-130-458c-76-266-134-452-156-497
		c-64-133-204-242-354-278c-96-22-2802-22-2898,0c-150,36-290,145-354,278c-22,45-80,231-156,497c-67,234-125,440-130,458l-10,32
		h2099h2099L4649,1898z"/>
	<path class="st0" d="M827,1699c-21-12-47-61-47-89c0-33,146-534,169-578c47-92,168-165,274-166c40,0,53,5,79,31c25,25,31,39,31,74
		s-6,48-30,69c-17,15-48,30-69,34c-50,9-80,29-97,64c-8,15-45,137-83,271c-79,280-91,301-166,301C865,1710,837,1705,827,1699z"/>
	<path class="st0" d="M2915,3928c-141-142-155-165-130-224c17-42,51-64,99-64c37,0,47,8,163,123c69,67,131,135,140,151
		c34,66-20,146-99,146C3048,4060,3041,4054,2915,3928z"/>
	<path class="st0" d="M2403,3834c-47-23-259-245-265-277c-16-82,47-144,130-129c18,3,70,47,154,131c102,102,128,133,133,162
		c9,46-14,93-55,114C2463,3854,2443,3854,2403,3834z"/>
	<path class="st0" d="M2713,3298c-158-156-169-176-138-243c18-37,51-55,102-55c33,0,48,11,168,133c81,80,134,142,137,157
		c12,70-36,130-105,130C2839,3420,2830,3413,2713,3298z"/>
</g>
</svg>
