<?xml version="1.0" encoding="utf-8"?>
<!-- Generator: Adobe Illustrator 25.4.1, SVG Export Plug-In . SVG Version: 6.00 Build 0)  -->
<svg version="1.1" id="Layer_1" xmlns="http://www.w3.org/2000/svg" xmlns:xlink="http://www.w3.org/1999/xlink" x="0px" y="0px"
	 viewBox="0 0 512 512" style="enable-background:new 0 0 512 512;" xml:space="preserve">
<style type="text/css">
	.st0{fill:#006AFF;}
</style>
<g transform="translate(0.000000,512.000000) scale(0.100000,-0.100000)">
	<path class="st0" d="M505.1,4427.5c-74-24.1-131-85-164-179c-20-55.8-21-80-21-769.2v-710.8l-38-22.8
		c-100-60.9-211-186.6-254-289.4l-23-54.6l-3-776.8C-1,761.8-3,791,65,725c34-33,46-36.8,136-40.6c136-7.6,182,3.8,225,52
		c44,48.2,49,66,79,247.5c16,105.3,29,152.3,46,175.2l22,30.5h1987.3h1987.3l22-30.5c17-22.8,30-69.8,46-175.2
		c30-181.5,35-199.3,79-247.5c43-48.2,89-59.7,225-52c90,3.8,102,7.6,136,40.6c68,66,66,36.8,63,899.9l-3,776.8l-23,54.6
		c-43,102.8-154,228.5-254,289.4l-38,22.8v710.8c0,689.2-1,713.3-21,769.2c-25,69.8-62,120.6-114,156.1l-40,27.9l-2045.3,2.5
		C1455.2,4435.1,522.1,4432.5,505.1,4427.5z M4622.8,4213l23-29.2l3-665.1l3-665.1l-83,35.5c-46,19-130,50.8-188,71.1
		c-58,20.3-106,36.8-108,38.1c-1,1.3,8,30.5,20,64.7c21,57.1,23,80,23,303.4c0,281.8-9,327.5-84,429c-54,73.6-97,102.8-176,121.9
		c-77,17.8-1231.2,19-1306.2,1.3c-62-15.2-123-52-161-99l-28-33l-27,33c-39,47-100,83.8-162,99c-75,17.8-1229.2,16.5-1306.2-1.3
		c-79-19-122-48.2-176-121.9c-75-101.5-84-147.2-84-429c0-223.4,2-246.2,23-303.4c12-34.3,21-63.5,20-64.7c-2-1.3-50-17.8-108-38.1
		c-58-20.3-142-52-187-71.1l-83-35.5v649.9c0,694.3,0,696.8,50,728.6c20,12.7,439.1,15.2,2052.3,12.7l2027.3-2.5L4622.8,4213z
		 M2400.4,3707.8c19-14,45-44.4,57-68.5c21-38.1,23-55.8,23-228.5c0-159.9-2-189.1-16-195.5c-9-3.8-80-7.6-160-7.6
		c-281,0-822.1-62.2-1139.2-132c-159-34.3-161-34.3-196,62.2c-15,40.6-19,83.8-19,223.4c0,212,4,239.9,44,297
		c57,83.8,42,82.5,741.1,78.7C2350.4,3734.4,2366.4,3734.4,2400.4,3707.8z M4077.7,3712.9c18-12.7,45-43.2,60-69.8
		c27-45.7,28-49.5,31-242.4c4-212-6-276.7-51-330l-22-25.4l-140,30.5c-316.1,69.8-858.1,132-1139.2,132c-80,0-151,3.8-160,7.6
		c-14,6.3-16,35.5-16,191.7c0,191.7,6,225.9,48,274.2c51,58.4,60,59.7,727.1,55.8C3993.7,3734.4,4048.7,3733.2,4077.7,3712.9z
		 M2820.5,3017.3c534.1-20.3,927.2-73.6,1313.2-177.7c442.1-119.3,759.1-298.3,821.1-462c13-34.3,16-87.6,16-266.5v-223.4h-217
		c-209,0-218-1.3-240-27.9c-41-48.2-26-124.4,28-148.5c19-8.9,111-14,230-14h199v-412.5V871l-92,3.8l-92,3.8l-21,133.3
		c-36,225.9-59,279.2-147,335.1l-52,33H2560.4H554.1l-52-33c-88-55.8-111-109.2-147-335.1l-21-133.3l-92-3.8l-92-3.8v413.8v412.5
		l2061.4,2.5l2061.4,3.8l24,35.5c29,43.2,30,71.1,3,115.5l-20,33H2214.4H150V2111c0,251.3,5,278,70,352.9
		c255,291.9,1079.2,515.3,2035.3,552.1c132,5.1,247,10.2,255,11.4C2518.4,3028.7,2658.5,3023.6,2820.5,3017.3z"/>
</g>
</svg>
