<?xml version="1.0" standalone="no"?>
<!DOCTYPE svg PUBLIC "-//W3C//DTD SVG 20010904//EN"
 "http://www.w3.org/TR/2001/REC-SVG-20010904/DTD/svg10.dtd">
<svg version="1.0" xmlns="http://www.w3.org/2000/svg"
 width="512.000000pt" height="512.000000pt" viewBox="0 0 512.000000 512.000000"
 preserveAspectRatio="xMidYMid meet">

<g transform="translate(0.000000,512.000000) scale(0.100000,-0.100000)"
fill="#000000" stroke="none">
<path d="M505 4031 c-74 -19 -131 -67 -164 -141 -20 -44 -21 -63 -21 -606 l0
-560 -38 -18 c-100 -48 -211 -147 -254 -228 l-23 -43 -3 -612 c-3 -680 -5
-657 63 -709 34 -26 46 -29 136 -32 136 -6 182 3 225 41 44 38 49 52 79 195
16 83 29 120 46 138 l22 24 1987 0 1987 0 22 -24 c17 -18 30 -55 46 -138 30
-143 35 -157 79 -195 43 -38 89 -47 225 -41 90 3 102 6 136 32 68 52 66 29 63
709 l-3 612 -23 43 c-43 81 -154 180 -254 228 l-38 18 0 560 c0 543 -1 562
-21 606 -25 55 -62 95 -114 123 l-40 22 -2045 2 c-1125 0 -2058 -2 -2075 -6z
m4117 -169 l23 -23 3 -524 3 -524 -83 28 c-46 15 -130 40 -188 56 -58 16 -106
29 -108 30 -1 1 8 24 20 51 21 45 23 63 23 239 0 222 -9 258 -84 338 -54 58
-97 81 -176 96 -77 14 -1231 15 -1306 1 -62 -12 -123 -41 -161 -78 l-28 -26
-27 26 c-39 37 -100 66 -162 78 -75 14 -1229 13 -1306 -1 -79 -15 -122 -38
-176 -96 -75 -80 -84 -116 -84 -338 0 -176 2 -194 23 -239 12 -27 21 -50 20
-51 -2 -1 -50 -14 -108 -30 -58 -16 -142 -41 -187 -56 l-83 -28 0 512 c0 547
0 549 50 574 20 10 439 12 2052 10 l2027 -2 23 -23z m-2222 -398 c19 -11 45
-35 57 -54 21 -30 23 -44 23 -180 0 -126 -2 -149 -16 -154 -9 -3 -80 -6 -160
-6 -281 0 -822 -49 -1139 -104 -159 -27 -161 -27 -196 49 -15 32 -19 66 -19
176 0 167 4 189 44 234 57 66 42 65 741 62 615 -2 631 -2 665 -23z m1677 4
c18 -10 45 -34 60 -55 27 -36 28 -39 31 -191 4 -167 -6 -218 -51 -260 l-22
-20 -140 24 c-316 55 -858 104 -1139 104 -80 0 -151 3 -160 6 -14 5 -16 28
-16 151 0 151 6 178 48 216 51 46 60 47 727 44 578 -2 633 -3 662 -19z m-1257
-548 c534 -16 927 -58 1313 -140 442 -94 759 -235 821 -364 13 -27 16 -69 16
-210 l0 -176 -217 0 c-209 0 -218 -1 -240 -22 -41 -38 -26 -98 28 -117 19 -7
111 -11 230 -11 l199 0 0 -325 0 -326 -92 3 -92 3 -21 105 c-36 178 -59 220
-147 264 l-52 26 -2006 0 -2006 0 -52 -26 c-88 -44 -111 -86 -147 -264 l-21
-105 -92 -3 -92 -3 0 326 0 325 2061 2 2061 3 24 28 c29 34 30 56 3 91 l-20
26 -2065 0 -2064 0 0 176 c0 198 5 219 70 278 255 230 1079 406 2035 435 132
4 247 8 255 9 8 1 148 -3 310 -8z"/>
</g>
</svg>
