<?xml version="1.0" encoding="utf-8"?>
<!-- Generator: Adobe Illustrator 25.4.1, SVG Export Plug-In . SVG Version: 6.00 Build 0)  -->
<svg version="1.1" id="Layer_1" xmlns="http://www.w3.org/2000/svg" xmlns:xlink="http://www.w3.org/1999/xlink" x="0px" y="0px"
	 viewBox="0 0 512 512" style="enable-background:new 0 0 512 512;" xml:space="preserve">
<g transform="translate(0.000000,512.000000) scale(0.100000,-0.100000)">
	<path d="M125,4393c-164-86-166-300-3-384c36-19,95-19,2435-19c2313,0,2399,1,2438,19c164,76,166,298,3,382c-36,19-95,19-2440,19
		C389,4409,152,4408,125,4393z"/>
	<path d="M149,2766c-60-21-100-56-125-110c-52-112-10-231,100-282l51-24h2385h2385l51,24c113,52,154,174,96,287
		c-29,57-70,92-131,109c-24,6-848,10-2406,10C644,2779,178,2777,149,2766z"/>
	<path d="M125,1121C21,1074-28,947,19,845c19-43,78-100,118-116c33-12,4813-12,4846,0c40,16,99,73,118,116c47,102-2,229-106,276
		c-38,18-140,19-2435,19S163,1139,125,1121z"/>
</g>
</svg>
