<?xml version="1.0" encoding="utf-8"?>
<!-- Generator: Adobe Illustrator 25.4.1, SVG Export Plug-In . SVG Version: 6.00 Build 0)  -->
<svg version="1.1" id="Layer_1" xmlns="http://www.w3.org/2000/svg" xmlns:xlink="http://www.w3.org/1999/xlink" x="0px" y="0px"
	 viewBox="0 0 512 512" style="enable-background:new 0 0 512 512;" xml:space="preserve">
<style type="text/css">
	.st0{display:none;}
	.st1{display:inline;}
	.st2{fill:#006AFF;}
</style>
<g transform="translate(0.000000,512.000000) scale(0.100000,-0.100000)" class="st0">
	<path class="st1" d="M2320,3874c-14-2-65-9-115-15c-708-86-1481-485-2027-1047c-236-243-236-261,0-504c526-541,1204-903,1938-1035
		c137-24,171-27,429-27c293-1,340,3,579,50c516,102,1051,361,1521,737c132,106,426,400,454,454c47,93,25,137-157,325
		c-570,586-1337,972-2107,1058C2752,3879,2377,3882,2320,3874z M2765,3561c383-79,681-364,787-752c19-72,23-109,23-249
		s-4-177-23-249c-101-371-376-647-741-743c-97-25-299-35-401-19c-505,78-870,502-870,1011c0,498,350,917,845,1008
		C2474,3585,2667,3581,2765,3561z M3915,3214c248-137,540-352,740-546l110-106l-55-57c-190-197-518-442-798-599
		c-128-72-296-150-286-133c5,6,27,41,50,77c93,146,161,322,189,490c19,122,19,330-1,445c-29,168-97,342-188,485c-23,36-45,71-50,77
		C3617,3363,3786,3285,3915,3214z M1490,3345c0-2-20-35-44-72c-63-99-103-181-141-296c-47-141-65-257-65-417c0-264,67-496,204-710
		c23-36,45-70,49-77c11-17-184,76-321,153c-249,141-518,342-712,531l-105,103l95,93c260,254,622,506,943,658
		C1475,3349,1490,3354,1490,3345z"/>
	<path class="st1" d="M2433,3055c-226-61-383-264-383-495c0-279,231-510,510-510c329,0,577,318,495,635
		C2984,2957,2699,3126,2433,3055z M2638,2754c78-32,132-111,132-194c0-113-97-210-210-210c-146,0-250,155-194,288
		C2410,2745,2534,2798,2638,2754z"/>
</g>
<g transform="translate(0.000000,512.000000) scale(0.100000,-0.100000)">
	<path class="st2" d="M2282.7,3882.9c-412-48-761-155-1155-355c-341-173-650-388-927-645c-139-129-169-168-189-237
		c-35-121-1-219,115-333c185-179,436-379,477-379c30,0,74,41,74,69c0,37-13,51-153,162c-156,125-341,298-363,341c-18,35-18,81,1,117
		c7,15,66,78,129,138c280,267,681,538,1035,698c108,50,308,128,381,150c16,5-8-25-75-91c-265-263-405-592-405-954s138-686,405-954
		c55-55,93-97,85-94s-62,22-120,43c-160,57-398,166-545,250c-148,84-181,91-214,49c-44-55-19-90,116-167c863-486,1703-584,2554-296
		c491,165,1002,475,1406,850c139,129,169,168,189,237c33,114,2,213-99,316c-61,62-69,67-103,64c-26-2-43-11-57-30
		c-28-37-17-69,47-137c63-66,76-89,76-131c0-48-21-78-126-180c-363-351-847-654-1317-824c-70-25-132-46-138-46s15,22,48,50
		c280,237,453,619,453,1000c0,367-142,698-413,962l-89,87l98-33c340-115,697-309,1037-563c54-40,106-73,116-73c45,0,88,61,72,103
		c-16,41-284,234-506,364c-404,237-821,390-1233,454C2813.7,3888.9,2419.7,3898.9,2282.7,3882.9z M2689.7,3732.9
		c137-15,249-48,384-114c287-140,497-376,602-680c78-227,78-520,0-750c-177-519-695-853-1235-796c-281,30-516,142-714,340
		c-254,254-377,598-340,948c45,415,284,758,655,939C2256.7,3723.9,2452.7,3757.9,2689.7,3732.9z"/>
	<path class="st2" d="M3107.7,3256.9c-51-8-96-27-147-59l-52-33l-54,24c-87,40-201,65-296,65c-194-1-344-62-482-200
		c-94-92-142-170-181-285c-19-59-23-90-23-205s4-146,23-205c38-112,88-193,176-281c135-135,264-192,451-201c213-10,367,49,516,197
		c122,120,177,227,203,390c11,70,14,75,41,83c54,15,139,81,177,137c90,128,91,288,2,417c-57,83-135,133-239,152
		C3162.7,3263.9,3151.7,3264.9,3107.7,3256.9z M3263.7,3080.9c96-50,140-175,95-273c-74-163-306-170-386-11c-64,128,10,281,147,305
		C3169.7,3110.9,3220.7,3103.9,3263.7,3080.9z"/>
</g>
<g class="st0">
	<path class="st1" d="M248.6,1.8c-7,4-7.6,6.3-7.6,30.2c0,23.6,0.6,26,6.9,30.2c7.1,4.8,17.5,2,21.3-5.7c1.5-3,1.8-6.5,1.8-24.3
		c0-24-0.8-27-8-30.7C257.9-1.1,253.4-1,248.6,1.8z"/>
	<path class="st1" d="M134.4,22.2c-9.1,2.3-13.1,13.2-8.4,22.6c4.7,9.2,19.3,34.3,21.3,36.5c4.9,5.5,13.4,6.9,19.4,3.2
		c4.4-2.7,7.6-9.8,6.7-14.8c-0.7-3.6-20.2-38.9-23.9-43.1C145.8,22.5,140.1,20.8,134.4,22.2z"/>
	<path class="st1" d="M367.5,22.9c-1.6,0.7-3.9,2.4-5.1,3.7c-3.7,4.2-23.2,39.5-23.9,43.1c-0.9,5,2.3,12.1,6.7,14.8
		c6,3.7,14.5,2.3,19.4-3.2c2-2.2,16.6-27.3,21.3-36.5c3.8-7.6,2.3-15.9-3.8-20.2C378.2,21.9,371.4,21.1,367.5,22.9z"/>
	<path class="st1" d="M152.4,425.5c-3.5,1.4-7,6.2-15.7,21.5c-11.9,20.9-12.8,22.9-12.8,27.5c0,13.3,16.3,19.9,25.2,10.2
		c3.8-4.1,23.6-39.4,24.3-43.4c0.9-5-2.3-12.1-6.7-14.8C163.4,424.4,156.2,423.9,152.4,425.5z"/>
	<path class="st1" d="M345.1,426.5c-4.4,2.7-7.6,9.8-6.7,14.8c0.7,4,20.5,39.3,24.3,43.4c4.9,5.3,13.3,6,19.4,1.6
		c6-4.2,7.5-12.5,3.7-20.1c-4.7-9.2-19.3-34.3-21.3-36.5C359.6,424.2,351.1,422.8,345.1,426.5z"/>
	<path class="st1" d="M247.9,448.8c-6.3,4.2-6.9,6.6-6.9,30.2c0,23.9,0.6,26.2,7.6,30.2c4.9,2.8,9.3,2.9,14.4,0.3
		c7.2-3.7,8-6.7,8-30.7c0-17.8-0.3-21.3-1.8-24.3c-2.5-5-7.5-8-13.2-8C252.8,446.5,250.1,447.2,247.9,448.8z"/>
</g>
</svg>
