<?xml version="1.0" encoding="utf-8"?>
<!-- Generator: Adobe Illustrator 25.4.1, SVG Export Plug-In . SVG Version: 6.00 Build 0)  -->
<svg version="1.1" id="Layer_1" xmlns="http://www.w3.org/2000/svg" xmlns:xlink="http://www.w3.org/1999/xlink" x="0px" y="0px"
	 viewBox="0 0 512 512" style="enable-background:new 0 0 512 512;" xml:space="preserve">
<style type="text/css">
	.st0{fill:#006AFF;}
</style>
<path class="st0" d="M225.8,468.2l-2.5-2.3L48.1,303.2C17.4,274.7,0,234.7,0,192.8v-3.3c0-70.4,50-130.8,119.2-144
	c39.4-7.6,79.7,1.5,111.8,24.1c9,6.4,17.4,13.8,25,22.3c4.2-4.8,8.7-9.2,13.5-13.3c3.7-3.2,7.5-6.2,11.5-9l0,0
	c32.1-22.6,72.4-31.7,111.8-24.2C462,58.6,512,119.1,512,189.5v3.3c0,41.9-17.4,81.9-48.1,110.4L288.7,465.9l-2.5,2.3
	c-8.2,7.6-19,11.9-30.2,11.9S234,475.9,225.8,468.2L225.8,468.2z M239.1,145c-0.4-0.3-0.7-0.7-1-1.1l-17.8-20l-0.1-0.1l0,0
	c-23.1-25.9-58-37.7-92-31.2C81.6,101.5,48,142.1,48,189.5v3.3c0,28.5,11.9,55.8,32.8,75.2L256,430.7L431.2,268
	c20.9-19.4,32.8-46.7,32.8-75.2v-3.3c0-47.3-33.6-88-80.1-96.9c-34-6.5-69,5.4-92,31.2c0,0,0,0-0.1,0.1s0,0-0.1,0.1l-17.8,20
	c-0.3,0.4-0.7,0.7-1,1.1c-4.5,4.5-10.6,7-16.9,7s-12.4-2.5-16.9-7V145z"/>
</svg>
