<?xml version="1.0" encoding="utf-8"?>
<!-- Generator: Adobe Illustrator 25.4.1, SVG Export Plug-In . SVG Version: 6.00 Build 0)  -->
<svg version="1.1" id="Layer_1" xmlns="http://www.w3.org/2000/svg" xmlns:xlink="http://www.w3.org/1999/xlink" x="0px" y="0px"
	 viewBox="0 0 512 512" style="enable-background:new 0 0 512 512;" xml:space="preserve">
<style type="text/css">
	.st0{fill:#006AFF;}
</style>
<g transform="translate(0.000000,512.000000) scale(0.100000,-0.100000)">
	<path class="st0" d="M1765.2,4853.6c-437-146.1-802.1-268.9-812.6-272.4c-9.3-4.6-26.7-23.2-37.1-40.6
		c-18.5-31.3-19.7-182-19.7-2179.2V217l-605.1-3.5c-653.8-3.5-638.7-2.3-672.3-66.1c-11.6-20.9-15.1-125.2-15.1-454.4v-427.7
		l38.3-37.1l37.1-38.3H2565h2886.3l37.1,38.3l38.3,37.1v427.7c0,329.2-3.5,433.5-15.1,454.4c-33.6,63.8-18.5,62.6-671.1,66.1
		l-606.2,3.5v2144.4c0,1874.3-2.3,2149-17.4,2178c-11.6,23.2-34.8,39.4-77.7,55.6C4066.1,4621.7,2572,5119,2565,5119
		C2561.5,5119,2202.2,4999.6,1765.2,4853.6z M2437.5,2516.7V215.8h-649.1h-649.1l2.3,2084.1l3.5,2083l643.3,216.8
		c353.5,118.2,644.5,216.8,646.8,216.8C2436.3,4817.6,2437.5,3782.5,2437.5,2516.7z M3990.7,4003.9c0-294.4-3.5-380.2-13.9-380.2
		c-8.1,0-300.2,95-649.1,211l-635.2,212.1v384.8v383.7l649.1-215.6l649.1-216.8V4003.9z M3990.7,2972.3
		c0-294.4-3.5-380.2-13.9-380.2c-8.1,0-300.2,95-649.1,211l-635.2,212.1V3400v383.7l649.1-215.6l649.1-216.8V2972.3z M3988.4,1940.6
		c2.3-299.1,0-380.2-11.6-380.2c-8.1,0-300.2,95-649.1,211l-635.2,212.1v384.8V2752l646.8-215.6l645.6-216.8L3988.4,1940.6z
		 M3359,1499l625.9-211l3.5-315.3c2.3-248.1,0-316.4-11.6-316.4c-8.1,0-300.2,95-649.1,211l-635.2,212.1v315.3
		c0,294.4,1.2,316.4,20.9,315.3C2723.8,1710,3014.7,1614.9,3359,1499z M3990.7,300.5v-84.6h-649.1h-649.1v300.2v300.2l649.1-215.6
		l649.1-216.8V300.5z M5277.4-300v-260.8H2565H-147.4V-300v260.8H2565h2712.4V-300z"/>
</g>
</svg>
