<?xml version="1.0" encoding="utf-8"?>
<!-- Generator: Adobe Illustrator 25.4.1, SVG Export Plug-In . SVG Version: 6.00 Build 0)  -->
<svg version="1.1" id="Layer_1" xmlns="http://www.w3.org/2000/svg" xmlns:xlink="http://www.w3.org/1999/xlink" x="0px" y="0px"
	 viewBox="0 0 512 512" style="enable-background:new 0 0 512 512;" xml:space="preserve">
<style type="text/css">
	.st0{display:none;}
	.st1{display:inline;}
</style>
<g transform="translate(0.000000,512.000000) scale(0.100000,-0.100000)" class="st0">
	<path class="st1" d="M1150,4671c-73-23-125-57-183-120c-58-62-92-132-107-221c-8-46-10-460-8-1385l3-1320l22-58
		c43-115,139-214,250-258l58-24l1765-3c1290-2,1781,0,1825,8c165,32,303,171,335,335c8,43,10,429,8,1400l-3,1340l-22,53
		c-32,80-97,158-166,203c-115,74,38,69-1941,68C1311,4689,1202,4688,1150,4671z M4789,4454c66-33,107-93,116-168c3-28,5-482,3-1010
		l-3-958l-473,551c-259,303-491,565-514,581c-106,77-261,76-372-3c-22.1-16-329.5-380.8-887.1-1050.9L2487,2568
		c-202,201-227,216-352,216c-146,1-138,6-632-487l-433-431v1227c0,1189,1,1229,19,1265c11,20,32,49,48,64c64,61-67,57,1849,58h1750
		L4789,4454z M3798,3272c13-9,268-303,567-652l544-635l1-143c0-79-5-164-12-190c-16-64-86-134-150-150c-61-16-3464-17-3519-2
		c-20,6-51,20-69,33c-71,48-100,12,435,547c322,322,498,491,515,495c15,3,40,1,56-5s121-103,234-215s218-209,234-215
		c67-25,64-28,567,575c309,371,479,567,497,574C3731,3301,3767,3295,3798,3272z"/>
	<path class="st1" d="M1790,4032c-73-24-125-59-183-121c-155-166-149-420,14-584c246-246,659-111,719,234c24,136-26,275-134,377
		c-84,78-148,104-271,109C1867,4049,1831,4046,1790,4032z M2005,3821c158-71,167-296,15-380c-93-52-211-23-274,67
		c-40,57-48,149-18,208C1783,3823,1902,3868,2005,3821z"/>
	<path class="st1" d="M478,3035c-16-9-33-32-42-57C398,2877,8,1400,3,1340c-14-168,88-343,240-413c29-13,308-93,622-177
		c314-83,1065-285,1670-447S3663,5,3696,3c158-14,333,85,404,227c32,64,200,679,200,732c0,45-38,94-79,103c-36,8-96-16-111-45
		c-9-17-190-670-190-686c0-3-19-25-41-49c-31-34-55-49-96-61c-62-18-54-19-318,52c-110,29-857,229-1660,444
		C227,1142,290,1122,243,1204c-46,83-51,56,182,924c118,441,215,814,215,828c0,16-13,39-34,60C568,3054,525,3060,478,3035z"/>
</g>
<g transform="translate(0.000000,512.000000) scale(0.100000,-0.100000)">
	<path d="M1012.4,4470.6c-21.7-5.8-45.8-15.8-54.2-21.7c-45-34.2-70.8-66.7-85.8-105.9c-16.7-44.2-16.7-65.8-16.7-1427.8
		c0-1371.9,0-1383.6,16.7-1428.6c19.2-50,64.2-97.5,115.9-120c27.5-13.3,185.9-14.2,2001.2-14.2s1973.7,0.8,2001.2,14.2
		c51.7,22.5,96.7,70,115.9,120c16.7,45,16.7,56.7,16.7,1428.6s0,1383.6-16.7,1428.6c-19.2,50-64.2,97.5-115.9,120
		c-27.5,13.3-186.7,14.2-1984.5,15.8C1449.1,4480.6,1043.2,4479,1012.4,4470.6z M4935.6,4328.1c17.5-6.7,32.5-20.8,37.5-33.3
		c10-25.8,11.7-1496.1,1.7-1496.1c-3.3,0-214.2,208.4-468.4,463.4c-503.4,504.3-501.8,503.4-591.8,503.4c-97.5,0-79.2,15.8-746-651
		l-608.4-607.6l-358.4,359.2c-394.2,395.1-399.2,399.2-491.8,399.2c-90-0.8-97.5-6.7-418.4-327.6l-294.2-293.4v814.3
		c0,518.4,3.3,821.8,8.3,836c18.3,48.3-105,45,1982,45.8C4647.2,4340.6,4910.6,4338.9,4935.6,4328.1z M4462.2,3105.4l519.3-519.3
		v-514.3c0-320.1-3.3-522.6-8.3-535.9c-18.3-48.3,75.8-45.8-1643.6-45.8H1751.7L2818.5,2557
		c1007.7,1007.7,1068.5,1066.9,1096,1066.9C3941.2,3623.8,3975.4,3592.1,4462.2,3105.4z M2105.9,2761.2l354.2-354.2l-458.4-458.4
		l-458.4-458.4h-235.9c-258.4,0-285.9,4.2-301.7,45.8c-5,13.3-8.3,191.7-8.3,465.1v443.4l335.9,335.1
		c184.2,184.2,344.2,338.4,355.9,342.6c11.7,4.2,29.2,5,41.7,0C1742.5,3118.7,1911.7,2955.4,2105.9,2761.2z"/>
	<path d="M2533.5,3969.7c-164.2-45-290.1-180.9-320.1-347.6c-36.7-205,99.2-415.1,308.4-476.8c63.3-18.3,170-17.5,235,3.3
		c180,55,300.1,220,300.1,408.4c-0.8,120-40.8,215.9-126.7,300.1C2825.2,3961.4,2667.7,4005.6,2533.5,3969.7z M2752.7,3812.2
		c53.3-24.2,108.4-78.3,136.7-135c30-59.2,33.3-155.9,7.5-224.2s-93.4-135.9-161.7-161.7c-101.7-38.3-225.9-11.7-300.9,65
		c-154.2,157.5-84.2,412.6,129.2,473.4C2616.8,3844.7,2697.7,3837.2,2752.7,3812.2z"/>
</g>
<g transform="translate(0.000000,512.000000) scale(0.100000,-0.100000)">
	<path d="M4312.7,1457.8 M4091.9,663c-82.6-290.6-98.2-340.6-106.5-351.5c-30.2-39.5,61.7-60-1604.1,355.8L852.9,1048.8L651,1099.2
		l-228.5,57c-250.3,62.5-275.9,72.9-280.5,114.6c-1.4,13.3,41.4,176.1,111.9,424.4l114.4,402.7l167.9,640.9
		c8.2,32.6-13.2,65.2-47.9,73.1h0h0c-35.4,8-71.2-12-80.6-45C81.9,1619.7-4.3,1302.1,0.2,1258.4c5.7-50,37-104.1,81.3-137
		c23.2-18.8,176.4-57.8,1935-496.8s1912.2-476.5,1942.3-471c55.9,7.9,111.7,40.2,143.2,81c22.7,30.1-11-90.5,182.9,590.1
		c39.2,137.8,14.9,52.3,56.7,199.4c9.5,33.4-10.7,68-45.8,78.5h0c-39.6,11.8-81.6-9.8-92.3-47.5l-59.5-209.4"/>
</g>
</svg>
