<?xml version="1.0" encoding="utf-8"?>
<!-- Generator: Adobe Illustrator 25.4.1, SVG Export Plug-In . SVG Version: 6.00 Build 0)  -->
<svg version="1.1" id="Layer_1" xmlns="http://www.w3.org/2000/svg" xmlns:xlink="http://www.w3.org/1999/xlink" x="0px" y="0px"
	 viewBox="0 0 512 512" style="enable-background:new 0 0 512 512;" xml:space="preserve">
<style type="text/css">
	.st0{fill:#0F73FF;}
</style>
<path class="st0" d="M502.6,278.6c12.5-12.5,12.5-32.8,0-45.3l-128-128c-12.5-12.5-32.8-12.5-45.3,0s-12.5,32.8,0,45.3l73.4,73.4
	H192c-17.7,0-32,14.3-32,32s14.3,32,32,32h210.7l-73.4,73.4c-12.5,12.5-12.5,32.8,0,45.3s32.8,12.5,45.3,0L502.6,278.6L502.6,278.6z
	 M160,96c17.7,0,32-14.3,32-32s-14.3-32-32-32H96C43,32,0,75,0,128v256c0,53,43,96,96,96h64c17.7,0,32-14.3,32-32s-14.3-32-32-32H96
	c-17.7,0-32-14.3-32-32V128c0-17.7,14.3-32,32-32H160z"/>
</svg>
