<?xml version="1.0" encoding="utf-8"?>
<!-- Generator: Adobe Illustrator 25.4.1, SVG Export Plug-In . SVG Version: 6.00 Build 0)  -->
<svg version="1.1" id="Layer_1" xmlns="http://www.w3.org/2000/svg" xmlns:xlink="http://www.w3.org/1999/xlink" x="0px" y="0px"
	 viewBox="0 0 512 512" style="enable-background:new 0 0 512 512;" xml:space="preserve">
<g transform="translate(0.000000,512.000000) scale(0.100000,-0.100000)">
	<path d="M165.6,4524.7c-218.8-114.7-221.4-400.2-4-512.2c48-24,113.4-25.3,2394.4-25.3c2254.4,0,2347.7,1.3,2398.4,25.3
		c218.8,101.4,221.4,397.5,4,509.6c-48,24-113.4,25.3-2401.1,25.3C441.7,4546,201.6,4544.7,165.6,4524.7z"/>
	<path d="M165.6,2817.3c-218.8-114.7-221.4-400.2-4-512.2c48-24,98.7-25.3,1540.7-25.3c1423.3,0,1494,1.3,1544.7,25.3
		c218.8,101.4,221.4,397.5,4,509.6c-48,24-98.7,25.3-1547.4,25.3C365.7,2838.6,201.6,2837.3,165.6,2817.3z"/>
	<path d="M165.6,1111.2c-218.8-117.4-221.4-401.5-2.7-513.6c48-25.3,81.4-25.3,847-22.7l797.7,4l49.4,33.3
		c28,18.7,66.7,57.4,86.7,85.4c32,46.7,36,65.4,36,154.7s-4,108-36,154.7c-20,28-58.7,66.7-86.7,85.4l-49.4,33.3l-800.4,2.7
		C296.3,1131.2,201.6,1129.8,165.6,1111.2z"/>
</g>
</svg>
