<?xml version="1.0" encoding="utf-8"?>
<!-- Generator: Adobe Illustrator 25.4.1, SVG Export Plug-In . SVG Version: 6.00 Build 0)  -->
<svg version="1.1" id="Layer_1" xmlns="http://www.w3.org/2000/svg" xmlns:xlink="http://www.w3.org/1999/xlink" x="0px" y="0px"
	 viewBox="0 0 512 512" style="enable-background:new 0 0 512 512;" xml:space="preserve">
<style type="text/css">
	.st0{display:none;}
</style>
<image style="display:none;overflow:visible;" width="512" height="512" xlink:href="../../../../../../../../Downloads/no-alarm (1).png"  transform="matrix(0.998 0 0 0.998 0.5 0)">
</image>
<g transform="translate(0.000000,512.000000) scale(0.100000,-0.100000)">
	<path d="M1633.3,3850.5c161,236,406.7,379.5,691.7,445.5c121,28,369,26,488-4c422-106,727-410,839-833c21-82,22-104,28-829l5-745
		l29-85c55-164,99-233,241-380c56-58,116-125,133-150c12.6-18.5,54.4-82.5,113.4-152.2c39.3-46.4,96.9-73.5,157.7-73.5l0,0l0,0
		c42,9.3,74.7,42.3,83.8,84.4l0.4,1.8c-0.5,100.3-15.2,94.1-57.4,164.7c-70.5,113.1-132.5,168.4-254.5,294.4
		c-113,116-137.7,164.9-175.7,253.9l-10.2,71.5l-6,735c-6,816-24.6,715.1-55.3,929.7c-141,423-454.3,760-886.3,899
		c-75,24-242,61-274,61c-2,0-4,44-4,98c0,82-4,105-22,142c-35,68-104,99-186,83c-34-7-98-75-105-113c-4-18-7-72-7-121
		c0-84-1-89-22-93c-13-3-61-13-108-22c-294.6-57-585.5-226.4-787.7-451.4c-14.5-16.1-21.1-38-22.9-61.9
		c-6.7-87.4,61.7-162.8,149.1-170.2"/>
	<path d="M1273.3,3026.2c-34-7-74.6-68.2-81.6-106.2c-4-18-7-240-7-494c0-280-5-479-11-506c-23-98-68-169-184-289
		c-155-161-198-229-250-391c-19-63-28-114-32-195c-4-101-13.4-56.1,8.6-97.1c17-33,35-51,68-67l40-20.9c2.6-1.4,5.5-2.1,8.5-2.1
		h1156.8h1221.5c3,0,5.9,0.7,8.5,2.1l40,20.9c48,24,48.3,72.3,48.3,121.3s0,49-37.9,94.9l-40,20.9c-2.6,1.4-5.5,2.1-8.5,2.1H2097
		H992.8c-12,0-20.8,11.4-17.8,23l0,0c27,88,73,156,180,267c128,132,181,207,226,323c56,146,59,182,59,701c0,469,0,472-22,516
		C1383,3018,1355.3,3042.2,1273.3,3026.2z"/>
</g>
<path d="M299.8,462H256h-43.8c0,0-6.1,38.3,43.8,40.6C305.9,500.2,299.8,462,299.8,462z"/>
<path class="st0" d="M449.9,477.7l-2.2,2.1c-3.5,3.4-9.1,3.3-12.5-0.3L61.8,90.3c-3.4-3.5-3.3-9.1,0.3-12.5l2.2-2.1
	c3.5-3.4,9.1-3.3,12.5,0.3l373.4,389.2C453.5,468.7,453.4,474.3,449.9,477.7z"/>
</svg>
