<?xml version="1.0" encoding="utf-8"?>
<!-- Generator: Adobe Illustrator 25.4.1, SVG Export Plug-In . SVG Version: 6.00 Build 0)  -->
<svg version="1.1" id="Layer_1" xmlns="http://www.w3.org/2000/svg" xmlns:xlink="http://www.w3.org/1999/xlink" x="0px" y="0px"
	 viewBox="0 0 448 512" style="enable-background:new 0 0 448 512;" xml:space="preserve">
<style type="text/css">
	.st0{fill:#FFFFFF;}
</style>
<path class="st0" d="M224,0c-17.7,0-32,14.3-32,32v17.9C119.5,61.4,64,124.2,64,200v33.4c0,45.4-15.5,89.5-43.8,124.9L5.3,377
	c-5.8,7.2-6.9,17.1-2.9,25.4S14.8,416,24,416h400c9.2,0,17.6-5.3,21.6-13.6s2.9-18.2-2.9-25.4l-14.9-18.6
	c-28.3-35.5-43.8-79.6-43.8-125V200c0-75.8-55.5-138.6-128-150.1V32C256,14.3,241.7,0,224,0z M224,96h8c57.4,0,104,46.6,104,104
	v33.4c0,47.9,13.9,94.6,39.7,134.6H72.3c25.8-40,39.7-86.7,39.7-134.6V200c0-57.4,46.6-104,104-104H224z M288,448h-64h-64
	c0,17,6.7,33.3,18.7,45.3S207,512,224,512s33.3-6.7,45.3-18.7S288,465,288,448z"/>
</svg>
