<?xml version="1.0" standalone="no"?>
<!DOCTYPE svg PUBLIC "-//W3C//DTD SVG 20010904//EN"
 "http://www.w3.org/TR/2001/REC-SVG-20010904/DTD/svg10.dtd">
<svg version="1.0" xmlns="http://www.w3.org/2000/svg"
 width="512.000000pt" height="512.000000pt" viewBox="0 0 512.000000 512.000000"
 preserveAspectRatio="xMidYMid meet">

<g transform="translate(0.000000,512.000000) scale(0.100000,-0.100000)"
fill="#000000" stroke="none">
<path d="M3923 5105 c-130 -35 -55 36 -1816 -1723 -1322 -1322 -1660 -1665
-1672 -1697 -30 -82 -435 -1516 -435 -1540 0 -67 78 -145 144 -145 34 0 1499
417 1551 441 28 13 542 521 1692 1671 1762 1764 1683 1681 1718 1815 27 102
14 216 -36 316 -29 58 -755 786 -819 821 -98 53 -223 69 -327 41z m170 -299
c18 -8 183 -166 374 -357 363 -366 363 -366 348 -447 -5 -31 -37 -67 -183
-215 l-177 -177 -422 422 -423 423 168 168 c92 93 181 175 197 183 39 17 78
17 118 0z m-268 -986 l420 -420 -1305 -1305 -1305 -1305 -422 422 -423 423
1302 1302 c717 717 1305 1303 1308 1303 3 0 194 -189 425 -420z m-2825 -2825
c189 -189 342 -346 340 -348 -8 -6 -963 -277 -967 -274 -4 5 271 967 277 967
3 0 160 -155 350 -345z"/>
</g>
</svg>
