<?xml version="1.0" encoding="utf-8"?>
<!-- Generator: Adobe Illustrator 25.4.1, SVG Export Plug-In . SVG Version: 6.00 Build 0)  -->
<svg version="1.1" id="Layer_1" xmlns="http://www.w3.org/2000/svg" xmlns:xlink="http://www.w3.org/1999/xlink" x="0px" y="0px"
	 viewBox="0 0 436.8 436.8" style="enable-background:new 0 0 436.8 436.8;" xml:space="preserve">
<style type="text/css">
	.st0{fill:#404F53;}
	.st1{fill:#232C2E;}
	.st2{fill:#FF3E3A;}
	.st3{fill:#CC3245;}
</style>
<image style="display:none;overflow:visible;enable-background:new    ;" width="512" height="512" xlink:href="../../../../../../../../Downloads/pin.png"  transform="matrix(1 0 0 1 -39.9149 -35.3191)">
</image>
<path class="st0" d="M241.2,246.7l-21.8,1l-21.8-1v1c0.7,2.2,0,167.6,0,167.6s6.5,21.3,21.8,21.1c15.1,0.2,21.8-21.1,21.8-21.1
	s-0.7-165.3,0-167.6V246.7z"/>
<rect x="198" y="185.1" class="st1" width="42.9" height="103"/>
<g transform="translate(0.000000,512.000000) scale(0.100000,-0.100000)">
	<path class="st2" d="M2055.9,5113.2c-338-39-657-222-863-495c-68-90-164-285-196-397c-91-316-46-687,116-963
		c228-389,637-625,1085-625c595,0,1116,440,1217,1030c32,187,17,410-40,592c-117,370-417,676-782,798
		C2417.9,5111.2,2227.9,5132.2,2055.9,5113.2z"/>
</g>
<path class="st3" d="M337.7,87.1C326,50.1,296.4,19,259.9,6.8c-2-0.7-4.1-1.3-6.2-1.9c24.9,17.4,44.1,45.6,53,77.4
	c5.7,20.5,7.2,45.7,4,66.8c-6.2,40.7-28.1,74.5-57.8,95c44.9-12.7,80.7-50,88.8-97.8C344.9,127.6,343.4,105.3,337.7,87.1z"/>
</svg>
