<?xml version="1.0" encoding="utf-8"?>
<!-- Generator: Adobe Illustrator 25.4.1, SVG Export Plug-In . SVG Version: 6.00 Build 0)  -->
<svg version="1.1" id="Layer_1" xmlns="http://www.w3.org/2000/svg" xmlns:xlink="http://www.w3.org/1999/xlink" x="0px" y="0px"
	 viewBox="0 0 512 512" style="enable-background:new 0 0 512 512;" xml:space="preserve">
<style type="text/css">
	.st0{fill:#006AFF;}
</style>
<g transform="translate(0.000000,512.000000) scale(0.100000,-0.100000)">
	<path class="st0" d="M2331.1,5108.4c-494-48-950-230-1350-538c-195-150-448-432-594-662c-63-99-186-351-230-471
		c-49-134-102-340-128-499c-31-195-31-565,0-760c45-276,116-498,237-745c132-269,269-460,489-681c221-220,412-357,681-489
		c247-121,469-192,745-237c195-31,565-31,760,0c276,45,498,116,745,237c269,132,460,269,681,489c220,221,357,412,489,681
		c88,179,132,296,180,476c63,240,78,371,78,649s-15,409-78,649c-48,180-92,297-180,476c-132,269-269,460-489,681
		c-221,220-412,357-681,489c-246,121-474,193-740,235C2799.1,5111.4,2471.1,5122.4,2331.1,5108.4z M2916.1,4769.4
		c637-107,1177-462,1531-1006c163-251,279-558,331-880c24-153,24-497,0-650c-106-652-456-1196-1001-1553c-258-170-563-286-891-339
		c-153-24-497-24-650,0c-656,106-1202,460-1561,1012c-163,251-279,558-331,880c-24,153-24,497,0,650c106,656,460,1202,1012,1561
		c291,189,661,315,1025,348C2489.1,4802.4,2799.1,4788.4,2916.1,4769.4z"/>
	<path class="st0" d="M2501.1,3987.4c-29-12-67-46-83-74c-7-11-14-71-17-134l-5-114l-80-22c-111-30-176-58-259-112
		c-335-217-392-612-127-882c154-156,334-230,609-250c75-6,163-17,195-26c137-36,256-127,290-221c22-62,22-86,0-148
		c-39-110-179-203-353-234c-164-29-326,5-458,95c-81,56-118,67-171,53c-80-21-132-104-116-187c17-91,203-214,400-262l70-17l5-116
		c5-126,14-148,74-192c39-29,133-29,172,0c60,44,69,66,74,191l5,116l80,22c111,30,176,58,259,112c335,217,392,612,127,882
		c-154,156-334,230-609,250c-75,6-163,17-195,26c-139,36-256,126-290,221c-22,62-22,86,0,148c40,111,178,203,353,234
		c164,29,326-5,458-95c81-56,118-67,171-53c80,21,132,104,116,187c-17,92-201,211-405,263l-65,16l-5,116c-5,125-14,148-72,191
		C2618.1,3994.4,2538.1,4003.4,2501.1,3987.4z"/>
</g>
</svg>
