<?xml version="1.0" standalone="no"?>
<!DOCTYPE svg PUBLIC "-//W3C//DTD SVG 20010904//EN"
 "http://www.w3.org/TR/2001/REC-SVG-20010904/DTD/svg10.dtd">
<svg version="1.0" xmlns="http://www.w3.org/2000/svg"
 width="512.000000pt" height="512.000000pt" viewBox="0 0 512.000000 512.000000"
 preserveAspectRatio="xMidYMid meet">

<g transform="translate(0.000000,512.000000) scale(0.100000,-0.100000)"
fill="#000000" stroke="none">
<path d="M2428 5110 c-133 -24 -285 -90 -379 -164 -62 -49 -1666 -1501 -1777
-1610 -128 -124 -196 -236 -244 -403 l-23 -78 0 -1065 c0 -1007 1 -1069 19
-1135 75 -283 286 -516 549 -606 45 -15 111 -33 147 -38 43 -7 659 -11 1850
-11 1705 0 1789 1 1876 19 315 65 561 311 646 647 l23 89 0 1055 0 1055 -28
88 c-51 164 -112 260 -243 388 -49 47 -379 348 -734 669 -355 322 -724 657
-820 744 -96 88 -200 178 -231 201 -74 54 -186 109 -279 135 -84 24 -274 35
-352 20z m266 -546 c21 -10 433 -377 915 -814 688 -625 882 -806 907 -848 68
-114 65 -50 62 -1162 l-3 -1005 -28 -53 c-37 -70 -97 -128 -166 -161 l-56 -26
-1775 0 -1775 0 -67 33 c-77 38 -130 92 -167 171 l-26 56 -3 989 c-1 627 1
1009 8 1043 5 30 17 70 26 90 11 23 126 134 328 318 1253 1138 1466 1329 1501
1347 72 38 117 48 200 44 52 -2 93 -10 119 -22z"/>
</g>
</svg>
