<?xml version="1.0" encoding="utf-8"?>
<!-- Generator: Adobe Illustrator 25.4.1, SVG Export Plug-In . SVG Version: 6.00 Build 0)  -->
<svg version="1.1" id="Layer_1" xmlns="http://www.w3.org/2000/svg" xmlns:xlink="http://www.w3.org/1999/xlink" x="0px" y="0px"
	 viewBox="0 0 512 512" style="enable-background:new 0 0 512 512;" xml:space="preserve">
<style type="text/css">
	.st0{fill:#FFFFFF;}
</style>
<g transform="translate(0.000000,512.000000) scale(0.100000,-0.100000)">
	<path class="st0" d="M2485.8,5101.1c-18.3-9.1-582.3-565.1-1252.4-1236.4C-91,2539.2-12.2,2624.8,8.4,2517.5
		c10.3-55.9,78.8-124.4,134.7-134.7c107.3-20.6,28.5-92.5,1273,1150.8l1144,1144l1145.1-1144
		C4948.5,2290.3,4869.7,2362.2,4977,2382.8c55.9,10.3,124.4,78.8,134.7,134.7c20.6,107.3,99.3,21.7-1225,1348.3
		C3173.2,4579.3,2653.7,5092,2632,5101.1C2586.3,5120.5,2530.3,5120.5,2485.8,5101.1z"/>
	<path class="st0" d="M659.1,2178.4c-46.8-20.6-94.8-78.8-102.8-124.4c-3.4-20.6-4.6-322-2.3-670.2c4.6-712.4,1.1-682.7,93.6-873.4
		c89.1-182.7,234-326.5,421.3-416.7c190.7-91.3,87.9-85.6,1491-85.6c1411.1,0,1301.5-6.9,1501.3,91.3
		c235.2,116.5,407.6,325.4,481.8,588c18.3,68.5,20.6,127.9,20.6,733c0,647.3,0,658.7-24,689.6c-44.5,60.5-81.1,78.8-153,78.8
		s-108.5-18.3-153-78.8c-22.8-30.8-24-46.8-29.7-672.4c-5.7-621.1-6.8-643.9-29.7-706.7c-58.2-153-180.4-275.1-333.4-333.4
		c-65.1-24-70.8-24-1241-27.4c-842.6-2.3-1195.3,0-1244.4,9.1c-78.8,14.8-182.7,65.1-246.6,117.6c-59.4,49.1-132.4,154.1-162.1,234
		c-24,62.8-25.1,84.5-30.8,706.7c-5.7,625.6-6.9,641.6-29.7,672.4c-12.6,17.1-36.5,42.2-52.5,53.7
		C796.1,2192.1,704.8,2200.1,659.1,2178.4z"/>
</g>
</svg>
