<?xml version="1.0" encoding="utf-8"?>
<!-- Generator: Adobe Illustrator 25.4.1, SVG Export Plug-In . SVG Version: 6.00 Build 0)  -->
<svg version="1.1" id="Layer_1" xmlns="http://www.w3.org/2000/svg" xmlns:xlink="http://www.w3.org/1999/xlink" x="0px" y="0px"
	 viewBox="0 0 512 512" style="enable-background:new 0 0 512 512;" xml:space="preserve">
<style type="text/css">
	.st0{fill:#FFFFFF;}
</style>
<g transform="translate(0.000000,512.000000) scale(0.100000,-0.100000)">
	<path class="st0" d="M1813.9,4881.1c-19.4-10.2-43.9-32.7-54.2-50.1c-10.2-17.4-178.9-481.4-374.1-1031.2L1030,2800.2l-458.9-5.1
		c-435.4-5.1-460.9-6.1-492.6-25.6c-99.1-59.3-104.2-205.4-10.2-272.9l33.7-23.5l539.6-3.1l539.6-3.1l40.9,23.5
		c31.7,17.4,47,36.8,69.5,84.8c15.3,33.7,152.3,409.8,303.5,835c150.2,426.2,277,770.6,281.1,766.5
		c3.1-4.1,244.3-873.9,534.5-1933.7c291.3-1059.9,536.6-1937.8,546.8-1952.1c73.6-103.2,223.8-93,280,19.4
		c12.3,25.6,208.5,521.2,436.4,1101.8L4088,2467l465,3.1l465,3.1l33.7,23.5c100.2,71.5,87.9,223.8-22.5,278
		c-43.9,20.4-54.2,20.4-576.4,18.4c-519.2-3.1-532.5-3.1-560.1-24.5c-15.3-11.2-36.8-31.7-47-46c-10.2-13.3-172.7-418-361.8-898.4
		c-189.1-480.4-347.5-885.1-353.6-899.4c-8.2-21.5-100.2,300.5-549.9,1934.7c-571.3,2077.8-544.8,1989.9-615.3,2026.7
		C1926.3,4906.6,1855.8,4903.6,1813.9,4881.1z"/>
</g>
</svg>
