<?xml version="1.0" encoding="utf-8"?>
<!-- Generator: Adobe Illustrator 25.4.1, SVG Export Plug-In . SVG Version: 6.00 Build 0)  -->
<svg version="1.1" id="Layer_1" xmlns="http://www.w3.org/2000/svg" xmlns:xlink="http://www.w3.org/1999/xlink" x="0px" y="0px"
	 viewBox="0 0 512 512" style="enable-background:new 0 0 512 512;" xml:space="preserve">
<style type="text/css">
	.st0{fill:#006AFF;}
</style>
<g transform="translate(0.000000,512.000000) scale(0.100000,-0.100000)">
	<path class="st0" d="M3556,4465c-76-27-135-110-136-190c0-22,7-78,15-125s15-91,15-98c0-8-21-2-61,18c-454,230-1007,255-1484,68
		c-416-162-762-481-959-882c-120-242-174-463-183-736c-6-205,5-327,47-500c118-484,433-898,869-1145c643-364,1460-296,2032,171
		c101,83,266,258,341,364c76,107,192,334,233,455c38,114,75,281,75,343c0,113-65,192-178,217c-74,16-182-37-217-106
		c-9-16-24-73-35-128c-69-344-252-635-529-844c-235-177-481-263-781-274c-258-8-440,30-665,142c-399,198-667,555-751,1000
		c-23,119-23,348-1,471c91,508,443,920,921,1078c159,53,267,70,446,70c180,0,300-19,442-70c80-29,242-103,236-109c-2-2-71-15-153-30
		c-105-19-163-34-192-51c-53-31-94-99-101-165c-10-101,74-206,177-224c37-6,771,112,849,137c76,24,141,113,142,193
		c0,44-124,782-140,831c-6,17-25,46-43,64C3724,4474,3639,4495,3556,4465z"/>
</g>
</svg>
