<?xml version="1.0" encoding="utf-8"?>
<!-- Generator: Adobe Illustrator 25.4.1, SVG Export Plug-In . SVG Version: 6.00 Build 0)  -->
<svg version="1.1" id="Layer_1" xmlns="http://www.w3.org/2000/svg" xmlns:xlink="http://www.w3.org/1999/xlink" x="0px" y="0px"
	 viewBox="0 0 512 512" style="enable-background:new 0 0 512 512;" xml:space="preserve">
<style type="text/css">
	.st0{display:none;}
	.st1{display:inline;}
	.st2{display:inline;fill:#006AFF;}
	.st3{fill:#006AFF;}
</style>
<g transform="translate(0.000000,512.000000) scale(0.100000,-0.100000)" class="st0">
	<path class="st1" d="M2320,3874c-14-2-65-9-115-15c-708-86-1481-485-2027-1047c-236-243-236-261,0-504c526-541,1204-903,1938-1035
		c137-24,171-27,429-27c293-1,340,3,579,50c516,102,1051,361,1521,737c132,106,426,400,454,454c47,93,25,137-157,325
		c-570,586-1337,972-2107,1058C2752,3879,2377,3882,2320,3874z M2765,3561c383-79,681-364,787-752c19-72,23-109,23-249
		s-4-177-23-249c-101-371-376-647-741-743c-97-25-299-35-401-19c-505,78-870,502-870,1011c0,498,350,917,845,1008
		C2474,3585,2667,3581,2765,3561z M3915,3214c248-137,540-352,740-546l110-106l-55-57c-190-197-518-442-798-599
		c-128-72-296-150-286-133c5,6,27,41,50,77c93,146,161,322,189,490c19,122,19,330-1,445c-29,168-97,342-188,485c-23,36-45,71-50,77
		C3617,3363,3786,3285,3915,3214z M1490,3345c0-2-20-35-44-72c-63-99-103-181-141-296c-47-141-65-257-65-417c0-264,67-496,204-710
		c23-36,45-70,49-77c11-17-184,76-321,153c-249,141-518,342-712,531l-105,103l95,93c260,254,622,506,943,658
		C1475,3349,1490,3354,1490,3345z"/>
	<path class="st1" d="M2433,3055c-226-61-383-264-383-495c0-279,231-510,510-510c329,0,577,318,495,635
		C2984,2957,2699,3126,2433,3055z M2638,2754c78-32,132-111,132-194c0-113-97-210-210-210c-146,0-250,155-194,288
		C2410,2745,2534,2798,2638,2754z"/>
</g>
<g transform="translate(0.000000,512.000000) scale(0.100000,-0.100000)" class="st0">
	<path class="st2" d="M2282.7,3882.9c-412-48-761-155-1155-355c-341-173-650-388-927-645c-139-129-169-168-189-237
		c-35-121-1-219,115-333c185-179,436-379,477-379c30,0,74,41,74,69c0,37-13,51-153,162c-156,125-341,298-363,341c-18,35-18,81,1,117
		c7,15,66,78,129,138c280,267,681,538,1035,698c108,50,308,128,381,150c16,5-8-25-75-91c-265-263-405-592-405-954s138-686,405-954
		c55-55,93-97,85-94s-62,22-120,43c-160,57-398,166-545,250c-148,84-181,91-214,49c-44-55-19-90,116-167c863-486,1703-584,2554-296
		c491,165,1002,475,1406,850c139,129,169,168,189,237c33,114,2,213-99,316c-61,62-69,67-103,64c-26-2-43-11-57-30
		c-28-37-17-69,47-137c63-66,76-89,76-131c0-48-21-78-126-180c-363-351-847-654-1317-824c-70-25-132-46-138-46s15,22,48,50
		c280,237,453,619,453,1000c0,367-142,698-413,962l-89,87l98-33c340-115,697-309,1037-563c54-40,106-73,116-73c45,0,88,61,72,103
		c-16,41-284,234-506,364c-404,237-821,390-1233,454C2813.7,3888.9,2419.7,3898.9,2282.7,3882.9z M2689.7,3732.9
		c137-15,249-48,384-114c287-140,497-376,602-680c78-227,78-520,0-750c-177-519-695-853-1235-796c-281,30-516,142-714,340
		c-254,254-377,598-340,948c45,415,284,758,655,939C2256.7,3723.9,2452.7,3757.9,2689.7,3732.9z"/>
	<path class="st2" d="M3107.7,3256.9c-51-8-96-27-147-59l-52-33l-54,24c-87,40-201,65-296,65c-194-1-344-62-482-200
		c-94-92-142-170-181-285c-19-59-23-90-23-205s4-146,23-205c38-112,88-193,176-281c135-135,264-192,451-201c213-10,367,49,516,197
		c122,120,177,227,203,390c11,70,14,75,41,83c54,15,139,81,177,137c90,128,91,288,2,417c-57,83-135,133-239,152
		C3162.7,3263.9,3151.7,3264.9,3107.7,3256.9z M3263.7,3080.9c96-50,140-175,95-273c-74-163-306-170-386-11c-64,128,10,281,147,305
		C3169.7,3110.9,3220.7,3103.9,3263.7,3080.9z"/>
</g>
<g class="st0">
	<path class="st1" d="M248.6,1.8c-7,4-7.6,6.3-7.6,30.2c0,23.6,0.6,26,6.9,30.2c7.1,4.8,17.5,2,21.3-5.7c1.5-3,1.8-6.5,1.8-24.3
		c0-24-0.8-27-8-30.7C257.9-1.1,253.4-1,248.6,1.8z"/>
	<path class="st1" d="M134.4,22.2c-9.1,2.3-13.1,13.2-8.4,22.6c4.7,9.2,19.3,34.3,21.3,36.5c4.9,5.5,13.4,6.9,19.4,3.2
		c4.4-2.7,7.6-9.8,6.7-14.8c-0.7-3.6-20.2-38.9-23.9-43.1C145.8,22.5,140.1,20.8,134.4,22.2z"/>
	<path class="st1" d="M367.5,22.9c-1.6,0.7-3.9,2.4-5.1,3.7c-3.7,4.2-23.2,39.5-23.9,43.1c-0.9,5,2.3,12.1,6.7,14.8
		c6,3.7,14.5,2.3,19.4-3.2c2-2.2,16.6-27.3,21.3-36.5c3.8-7.6,2.3-15.9-3.8-20.2C378.2,21.9,371.4,21.1,367.5,22.9z"/>
	<path class="st1" d="M152.4,425.5c-3.5,1.4-7,6.2-15.7,21.5c-11.9,20.9-12.8,22.9-12.8,27.5c0,13.3,16.3,19.9,25.2,10.2
		c3.8-4.1,23.6-39.4,24.3-43.4c0.9-5-2.3-12.1-6.7-14.8C163.4,424.4,156.2,423.9,152.4,425.5z"/>
	<path class="st1" d="M345.1,426.5c-4.4,2.7-7.6,9.8-6.7,14.8c0.7,4,20.5,39.3,24.3,43.4c4.9,5.3,13.3,6,19.4,1.6
		c6-4.2,7.5-12.5,3.7-20.1c-4.7-9.2-19.3-34.3-21.3-36.5C359.6,424.2,351.1,422.8,345.1,426.5z"/>
	<path class="st1" d="M247.9,448.8c-6.3,4.2-6.9,6.6-6.9,30.2c0,23.9,0.6,26.2,7.6,30.2c4.9,2.8,9.3,2.9,14.4,0.3
		c7.2-3.7,8-6.7,8-30.7c0-17.8-0.3-21.3-1.8-24.3c-2.5-5-7.5-8-13.2-8C252.8,446.5,250.1,447.2,247.9,448.8z"/>
</g>
<g transform="translate(0.000000,512.000000) scale(0.100000,-0.100000)">
	<path class="st3" d="M2584.3,5094.1l-25-24v-434v-434l25-23c32-30,78-30,110,0l25,23v434v434l-25,24c-15,16-36,25-55,25
		S2599.3,5110.1,2584.3,5094.1z"/>
	<path class="st3" d="M1954.3,4674.1l-25-24v-224v-224l25-23c15-14,37-23,55-23s40,9,55,23l25,23v224v224l-25,24c-15,16-36,25-55,25
		S1969.3,4690.1,1954.3,4674.1z"/>
	<path class="st3" d="M3214.3,4674.1l-25-24v-223c1-240,2-248,53-267c31-12,53-6,85,22c22,20,22,25,22,244v224l-25,24
		c-15,16-36,25-55,25S3229.3,4690.1,3214.3,4674.1z"/>
	<path class="st3" d="M2594.3,3567.1c-35-19-45-40-45-99v-56l-44-17c-129-49-226-192-226-332c0-107,70-236,158-292
		c66-43,96-53,185-63c89-11,124-25,160-68c105-125,20-311-143-311c-100,0-173,65-189,171c-15,93-84,127-142,70c-34-34-36-60-14-146
		c28-107,122-211,223-246c31-11,32-13,32-66c0-66,10-86,50-103c24-10,36-10,60,0c40,16,50,37,50,100c0,39,4,52,18,56
		c195,65,305,249,258,434c-40,154-151,250-313,270c-98,13-110,17-152,47c-123,93-77,292,77,332c109,30,231-63,232-177
		c0-42,46-92,85-92c36,0,85,50,85,87c0,55-31,148-66,200c-43,63-89,99-163,129l-56,23l-3,48c-3,59-17,87-49,102
		C2632.3,3582.1,2620.3,3581.1,2594.3,3567.1z"/>
	<path class="st3" d="M2069.3,172.1c295-83,574-157,620-164c91-13,259-8,350,11c166,34,230,65,508,244c1023,660,1240,801,1265,824
		c37,35,36,76-4,136c-40,59-99,108-175,143c-77,35-215,44-292,19c-28-10-203-89-389-177c-300-142-339-158-348-143
		c-75,127-213,224-364,254c-25,5-206,14-402,20c-411,12-444,17-608,100c-207,103-354,136-574,127c-146-5-234-25-374-81l-86-34l6,70
		c8,91-8,132-55,146c-18,6-187,14-379,18c-343,6-347,6-367-14c-12-12-24-32-26-44c-11-50-44-1491-35-1515c17-46,49-50,424-58l350-7
		l23,25c16,17,26,43,30,78l7,52l115,60c140,72,139.9,87.8,490.1-8.7 M1034.3,1506.1c1-1-7-272-16-602c-10-330-18-620-18-644l-1-44
		l-247,7c-136,4-248,8-249,9c-2,2,33,1270,35,1286C539.3,1522.1,1032.3,1511.1,1034.3,1506.1z M1779.5,253.4l47.2,160.3
		c-380.7,104.5-423.1,93.1-573.3,18.4c-41-20-75-35-77-32c-5,5,19,848,24,853c18,17,149,81,206,100c172,59,350,65,531,20
		c56-14,149-50,230-88c192-91,214-96,502-107c541-21,559-22,622-51c76-35,141-98,178-171c48-96,56-91-147-84c-98,4-308,10-468,13
		c-282,7-291,6-315-14c-34-27-35-96-2-122c29-24,76-27,627-41l459-11l29,32c27,30,29,38,25,97l-3,64l347,164c191,91,367,169,391,175
		c24,5,61,7,83,3c47-7,137-50,132-63c-3-11-1362-891-1420-921c-20-10-76-31-125-46c-80-24-103-27-253-27h-165l-535,153l-60-156"/>
</g>
<path class="st3" d="M383.4,257.1c0.7-2.9,0,0.1,0.6-3c1.6-8.4,1.6-32.7,0-40.9c-8.8-45.5-39.2-80.8-81.9-95.1
	c-17-5.7-40.5-7.5-58.2-4.5c-38.2,6.5-71.8,31.4-88.9,66c-8.8,17.7-12.5,33.6-12.5,54c0,32.4,11.1,60.5,33.1,83.6
	c41.2,43.4,106.3,50.4,156.8,17.1c3.9-2.5,11.6-9.1,17.1-14.7c10.5-10.4,16.4-16.9,22.4-29.5l2.7-7l-16-5.1l-2.4,5.8
	c-18.8,39.1-57.1,58-102.1,54.2c-55.2-4.7-97.8-53.8-94.9-109.3c2.5-48.2,36.5-87.8,84.2-97.9c8.3-1.8,29.6-2.1,38.1-0.6
	c22.5,4,41.9,14.4,58,31.1c12.7,13.2,21.3,28.5,26.1,46.6c2.3,8.5,2.6,11.7,2.6,25.7c0,14.2,0.3,10.7-1.1,19.4"/>
<g transform="translate(0.000000,512.000000) scale(0.100000,-0.100000)" class="st0">
	<path class="st2" d="M2584.3,5094.1l-25-24v-434v-434l25-23c32-30,78-30,110,0l25,23v434v434l-25,24c-15,16-36,25-55,25
		S2599.3,5110.1,2584.3,5094.1z"/>
	<path class="st2" d="M1954.3,4674.1l-25-24v-224v-224l25-23c15-14,37-23,55-23s40,9,55,23l25,23v224v224l-25,24c-15,16-36,25-55,25
		S1969.3,4690.1,1954.3,4674.1z"/>
	<path class="st2" d="M3214.3,4674.1l-25-24v-223c1-240,2-248,53-267c31-12,53-6,85,22c22,20,22,25,22,244v224l-25,24
		c-15,16-36,25-55,25S3229.3,4690.1,3214.3,4674.1z"/>
	<path class="st2" d="M2439.3,3984.1c-382-65-718-314-889-660c-88-177-125-336-125-540c0-324,111-605,331-836
		c412-434,1063-504,1568-171c39,25,116,91,171,147c184,182,296,394,345,655c16,84,16,327,0,409c-88,455-392,808-819,951
		C2851.3,3996.1,2616.3,4014.1,2439.3,3984.1z M2815.3,3818.1c225-40,419-144,580-311c127-132,213-285,261-466c23-85,26-117,26-257
		c0-142-3-172-26-260c-135-504-595-828-1115-784c-552,47-978,538-949,1093c25,482,365,878,842,979
		C2517.3,3830.1,2730.3,3833.1,2815.3,3818.1z"/>
	<path class="st2" d="M2594.3,3567.1c-35-19-45-40-45-99v-56l-44-17c-129-49-226-192-226-332c0-107,70-236,158-292
		c66-43,96-53,185-63c89-11,124-25,160-68c105-125,20-311-143-311c-100,0-173,65-189,171c-15,93-84,127-142,70c-34-34-36-60-14-146
		c28-107,122-211,223-246c31-11,32-13,32-66c0-66,10-86,50-103c24-10,36-10,60,0c40,16,50,37,50,100c0,39,4,52,18,56
		c195,65,305,249,258,434c-40,154-151,250-313,270c-98,13-110,17-152,47c-123,93-77,292,77,332c109,30,231-63,232-177
		c0-42,46-92,85-92c36,0,85,50,85,87c0,55-31,148-66,200c-43,63-89,99-163,129l-56,23l-3,48c-3,59-17,87-49,102
		C2632.3,3582.1,2620.3,3581.1,2594.3,3567.1z"/>
	<path class="st2" d="M401.3,1671.1c-12-12-24-32-26-44c-11-50-44-1491-35-1515c17-46,49-50,424-58l350-7l23,25c16,17,26,43,30,78
		l7,52l115,60c171,88,133,92,780-90c295-83,574-157,620-164c91-13,259-8,350,11c166,34,230,65,508,244c1023,660,1240,801,1265,824
		c37,35,36,76-4,136c-40,59-99,108-175,143c-77,35-215,44-292,19c-28-10-203-89-389-177c-300-142-339-158-348-143
		c-75,127-213,224-364,254c-25,5-206,14-402,20c-411,12-444,17-608,100c-207,103-354,136-574,127c-146-5-234-25-374-81l-86-34l6,70
		c8,91-8,132-55,146c-18,6-187,14-379,18C425.3,1691.1,421.3,1691.1,401.3,1671.1z M1034.3,1506.1c1-1-7-272-16-602
		c-10-330-18-620-18-644l-1-44l-247,7c-136,4-248,8-249,9c-2,2,33,1270,35,1286C539.3,1522.1,1032.3,1511.1,1034.3,1506.1z
		 M1937.3,1373.1c56-14,149-50,230-88c192-91,214-96,502-107c541-21,559-22,622-51c76-35,141-98,178-171c48-96,56-91-147-84
		c-98,4-308,10-468,13c-282,7-291,6-315-14c-34-27-35-96-2-122c29-24,76-27,627-41l459-11l29,32c27,30,29,38,25,97l-3,64l347,164
		c191,91,367,169,391,175c24,5,61,7,83,3c47-7,137-50,132-63c-3-11-1362-891-1420-921c-20-10-76-31-125-46c-80-24-103-27-253-27
		h-165l-535,153c-670,192-693,195-876,104c-41-20-75-35-77-32c-5,5,19,848,24,853c18,17,149,81,206,100
		C1578.3,1412.1,1756.3,1418.1,1937.3,1373.1z"/>
</g>
</svg>
