<?xml version="1.0" encoding="utf-8"?>
<!-- Generator: Adobe Illustrator 25.4.1, SVG Export Plug-In . SVG Version: 6.00 Build 0)  -->
<svg version="1.1" id="Layer_1" xmlns="http://www.w3.org/2000/svg" xmlns:xlink="http://www.w3.org/1999/xlink" x="0px" y="0px"
	 viewBox="0 0 512 512" style="enable-background:new 0 0 512 512;" xml:space="preserve">
<style type="text/css">
	.st0{fill:#FFFFFF;}
</style>
<g transform="translate(0.000000,512.000000) scale(0.100000,-0.100000)">
	<path class="st0" d="M2085,4474c-709-76-1277-596-1417-1297c-32-161-32-433,0-594c130-650,619-1140,1272-1274c161-33,433-34,595-1
		c242,48,455,141,644,280l74,54l496-495c436-436,501-496,534-502c60-11,107,3,148,44s55,88,44,149c-6,32-66,97-501,533l-495,496
		l56,79c142,198,229,398,277,639c32,158,32,432,0,592c-129,648-623,1144-1267,1273C2447,4470,2177,4484,2085,4474z M2510,4131
		c251-57,446-165,631-350c186-185,300-394,355-651c26-119,26-381,0-500c-55-257-169-466-355-651c-185-186-394-299-651-355
		c-126-27-392-25-516,4c-259,61-452,167-635,351c-186,185-300,394-355,651c-26,119-26,381,0,500c56,259,167,462,355,651
		c182,183,383,294,630,349c121,26,148,29,311,24C2375,4152,2454,4144,2510,4131z"/>
</g>
</svg>
