<?xml version="1.0" encoding="utf-8"?>
<!-- Generator: Adobe Illustrator 25.4.1, SVG Export Plug-In . SVG Version: 6.00 Build 0)  -->
<svg version="1.1" id="Layer_1" xmlns="http://www.w3.org/2000/svg" xmlns:xlink="http://www.w3.org/1999/xlink" x="0px" y="0px"
	 viewBox="0 0 800 800" style="enable-background:new 0 0 800 800;" xml:space="preserve">
<style type="text/css">
	.st0{fill:#FFFFFF;}
</style>
<path class="st0" d="M400,112c20.1,0,36.5-16.3,36.5-36.5S420.1,39,400,39V112z M777,416c0-20.1-16.3-36.5-36.5-36.5
	S704,395.9,704,416H777z M740.5,112c20.1,0,36.5-16.3,36.5-36.5S760.7,39,740.5,39V112z M541.7,39c-20.1,0-36.5,16.3-36.5,36.5
	s16.3,36.5,36.5,36.5V39z M777,75.5c0-20.1-16.3-36.5-36.5-36.5S704,55.3,704,75.5H777z M704,276.9c0,20.1,16.3,36.5,36.5,36.5
	s36.5-16.3,36.5-36.5H704z M766.3,101.3c14.2-14.2,14.2-37.3,0-51.6c-14.2-14.2-37.3-14.2-51.6,0L766.3,101.3z M374.2,390.2
	c-14.2,14.2-14.2,37.3,0,51.6s37.3,14.2,51.6,0L374.2,390.2z M400,39H254.1v73H400V39z M254.1,39C126.5,39,23,142.5,23,270.1h73
	C96,182.7,166.7,112,254.1,112V39z M23,270.1v291.9h73V270.1H23z M23,561.9C23,689.6,126.5,793,254.1,793v-73
	C166.7,720,96,649.2,96,561.9H23z M254.1,793h291.9v-73H254.1V793z M545.9,793C673.6,793,777,689.6,777,561.9h-73
	c0,87.3-70.8,158.1-158.1,158.1V793z M777,561.9V416h-73v145.9H777z M740.5,39H541.7v73h198.9V39z M704,75.5v201.4h73V75.5H704z
	 M714.7,49.7L374.2,390.2l51.6,51.6l340.5-340.5L714.7,49.7z"/>
</svg>
