<?xml version="1.0" encoding="utf-8"?>
<!-- Generator: Adobe Illustrator 25.4.1, SVG Export Plug-In . SVG Version: 6.00 Build 0)  -->
<svg version="1.1" id="Layer_1" xmlns="http://www.w3.org/2000/svg" xmlns:xlink="http://www.w3.org/1999/xlink" x="0px" y="0px"
	 viewBox="0 0 512 512" style="enable-background:new 0 0 512 512;" xml:space="preserve">
<style type="text/css">
	.st0{fill:#006AFF;}
</style>
<g transform="translate(0.000000,512.000000) scale(0.100000,-0.100000)">
	<path class="st0" d="M3527.6,4786.7C2671.8,3934,17.8,1276.9,9.4,1263.3c-5.2-8.4-9.4-33.4-9.4-56.4c0-40.8,6.3-48.1,583.1-623.8
		L1165.1,0h47h47L3189,1931l1931,1929.9v47v47l-583.1,582l-582,583.1h-46h-47L3527.6,4786.7z M4383.3,4378.1l470.2-470.2
		L3032.3,2086.7L1212.1,266.4L739.8,738.7l-473.3,473.3l240.3,240.3l240.3,240.3L950.9,1489c111.8-111.8,217.3-207.9,234.1-214.2
		c42.8-15.7,84.6-4.2,117,34.5c23,27.2,26.1,39.7,21.9,78.4c-5.2,44.9-14.6,56.4-212.1,253.9l-207.9,207.9l237.2,237.2l238.2,237.2
		l133.7-132.7c128.5-126.4,136.9-132.7,177.6-132.7c78.4,0,132.7,72.1,106.6,142.1c-6.3,16.7-67.9,86.7-135.8,155.7L1536,2481.6
		l235.1,235.1l235.1,235.1l195.4-194.4c108.7-107.6,207.9-202.7,222.6-212.1c42.8-28.2,90.9-21.9,131.7,18.8
		c40.8,40.8,47,88.8,18.8,131.7c-9.4,14.6-104.5,113.9-212.1,222.6l-194.4,195.4l235.1,235.1l235.1,235.1l125.4-125.4
		c69-67.9,139-129.6,155.7-135.8c70-26.1,142.1,28.2,142.1,106.6c0,40.8-6.3,49.1-132.7,177.6l-132.7,133.7l237.2,238.2l237.2,237.2
		l214.2-214.2c200.6-199.6,215.2-213.2,250.8-212.1c46,1,83.6,25.1,105.5,66.9c32.4,63.7,20.9,81.5-204.8,307.2l-209,209
		l237.2,237.2c130.6,131.7,240.3,238.2,243.5,238.2C3911.1,4848.3,4125.3,4636.2,4383.3,4378.1z"/>
</g>
</svg>
