<?xml version="1.0" standalone="no"?>
<!DOCTYPE svg PUBLIC "-//W3C//DTD SVG 20010904//EN"
 "http://www.w3.org/TR/2001/REC-SVG-20010904/DTD/svg10.dtd">
<svg version="1.0" xmlns="http://www.w3.org/2000/svg"
 width="512.000000pt" height="512.000000pt" viewBox="0 0 512.000000 512.000000"
 preserveAspectRatio="xMidYMid meet">

<g transform="translate(0.000000,512.000000) scale(0.100000,-0.100000)"
fill="#000000" stroke="none">
<path d="M3486 4691 c-819 -816 -3359 -3359 -3367 -3372 -5 -8 -9 -32 -9 -54
0 -39 6 -46 558 -597 l557 -558 45 0 45 0 1847 1848 1848 1847 0 45 0 45 -558
557 -557 558 -44 0 -45 0 -320 -319z m819 -391 l450 -450 -1743 -1743 -1742
-1742 -452 452 -453 453 230 230 230 230 195 -195 c107 -107 208 -199 224
-205 41 -15 81 -4 112 33 22 26 25 38 21 75 -5 43 -14 54 -203 243 l-199 199
227 227 228 227 128 -127 c123 -121 131 -127 170 -127 75 0 127 69 102 136 -6
16 -65 83 -130 149 l-120 120 225 225 225 225 187 -186 c104 -103 199 -194
213 -203 41 -27 87 -21 126 18 39 39 45 85 18 126 -9 14 -100 109 -203 213
l-186 187 225 225 225 225 120 -120 c66 -65 133 -124 149 -130 67 -25 136 27
136 102 0 39 -6 47 -127 170 l-127 128 227 228 227 227 205 -205 c192 -191
206 -204 240 -203 44 1 80 24 101 64 31 61 20 78 -196 294 l-200 200 227 227
c125 126 230 228 233 228 3 0 208 -203 455 -450z"/>
</g>
</svg>
