<?xml version="1.0" encoding="utf-8"?>
<!-- Generator: Adobe Illustrator 25.4.1, SVG Export Plug-In . SVG Version: 6.00 Build 0)  -->
<svg version="1.1" id="Layer_1" xmlns="http://www.w3.org/2000/svg" xmlns:xlink="http://www.w3.org/1999/xlink" x="0px" y="0px"
	 viewBox="0 0 512 512" style="enable-background:new 0 0 512 512;" xml:space="preserve">
<style type="text/css">
	.st0{display:none;}
	.st1{display:inline;}
	.st2{fill:#006AFF;}
</style>
<g transform="translate(0.000000,512.000000) scale(0.100000,-0.100000)" class="st0">
	<path class="st1" d="M2320,3874c-14-2-65-9-115-15c-708-86-1481-485-2027-1047c-236-243-236-261,0-504c526-541,1204-903,1938-1035
		c137-24,171-27,429-27c293-1,340,3,579,50c516,102,1051,361,1521,737c132,106,426,400,454,454c47,93,25,137-157,325
		c-570,586-1337,972-2107,1058C2752,3879,2377,3882,2320,3874z M2765,3561c383-79,681-364,787-752c19-72,23-109,23-249
		s-4-177-23-249c-101-371-376-647-741-743c-97-25-299-35-401-19c-505,78-870,502-870,1011c0,498,350,917,845,1008
		C2474,3585,2667,3581,2765,3561z M3915,3214c248-137,540-352,740-546l110-106l-55-57c-190-197-518-442-798-599
		c-128-72-296-150-286-133c5,6,27,41,50,77c93,146,161,322,189,490c19,122,19,330-1,445c-29,168-97,342-188,485c-23,36-45,71-50,77
		C3617,3363,3786,3285,3915,3214z M1490,3345c0-2-20-35-44-72c-63-99-103-181-141-296c-47-141-65-257-65-417c0-264,67-496,204-710
		c23-36,45-70,49-77c11-17-184,76-321,153c-249,141-518,342-712,531l-105,103l95,93c260,254,622,506,943,658
		C1475,3349,1490,3354,1490,3345z"/>
	<path class="st1" d="M2433,3055c-226-61-383-264-383-495c0-279,231-510,510-510c329,0,577,318,495,635
		C2984,2957,2699,3126,2433,3055z M2638,2754c78-32,132-111,132-194c0-113-97-210-210-210c-146,0-250,155-194,288
		C2410,2745,2534,2798,2638,2754z"/>
</g>
<g class="st0">
	<path class="st1" d="M248.6,1.8c-7,4-7.6,6.3-7.6,30.2c0,23.6,0.6,26,6.9,30.2c7.1,4.8,17.5,2,21.3-5.7c1.5-3,1.8-6.5,1.8-24.3
		c0-24-0.8-27-8-30.7C257.9-1.1,253.4-1,248.6,1.8z"/>
	<path class="st1" d="M134.4,22.2c-9.1,2.3-13.1,13.2-8.4,22.6c4.7,9.2,19.3,34.3,21.3,36.5c4.9,5.5,13.4,6.9,19.4,3.2
		c4.4-2.7,7.6-9.8,6.7-14.8c-0.7-3.6-20.2-38.9-23.9-43.1C145.8,22.5,140.1,20.8,134.4,22.2z"/>
	<path class="st1" d="M367.5,22.9c-1.6,0.7-3.9,2.4-5.1,3.7c-3.7,4.2-23.2,39.5-23.9,43.1c-0.9,5,2.3,12.1,6.7,14.8
		c6,3.7,14.5,2.3,19.4-3.2c2-2.2,16.6-27.3,21.3-36.5c3.8-7.6,2.3-15.9-3.8-20.2C378.2,21.9,371.4,21.1,367.5,22.9z"/>
	<path class="st1" d="M152.4,425.5c-3.5,1.4-7,6.2-15.7,21.5c-11.9,20.9-12.8,22.9-12.8,27.5c0,13.3,16.3,19.9,25.2,10.2
		c3.8-4.1,23.6-39.4,24.3-43.4c0.9-5-2.3-12.1-6.7-14.8C163.4,424.4,156.2,423.9,152.4,425.5z"/>
	<path class="st1" d="M345.1,426.5c-4.4,2.7-7.6,9.8-6.7,14.8c0.7,4,20.5,39.3,24.3,43.4c4.9,5.3,13.3,6,19.4,1.6
		c6-4.2,7.5-12.5,3.7-20.1c-4.7-9.2-19.3-34.3-21.3-36.5C359.6,424.2,351.1,422.8,345.1,426.5z"/>
	<path class="st1" d="M247.9,448.8c-6.3,4.2-6.9,6.6-6.9,30.2c0,23.9,0.6,26.2,7.6,30.2c4.9,2.8,9.3,2.9,14.4,0.3
		c7.2-3.7,8-6.7,8-30.7c0-17.8-0.3-21.3-1.8-24.3c-2.5-5-7.5-8-13.2-8C252.8,446.5,250.1,447.2,247.9,448.8z"/>
</g>
<g transform="translate(0.000000,512.000000) scale(0.100000,-0.100000)">
	<path class="st2" d="M2384.9,4849.6c-501.3-47.5-902.2-206.3-1270.8-504c-461-370.4-755.1-896.8-837.6-1498.5
		c-16.1-112.1-16.1-461.8,0-573.9c71.7-521.9,293.3-971.2,656.5-1335.3C1586.8,285,2554.4,87.7,3416.2,432
		c426,170.4,802.6,480.7,1063.6,878c253.8,384.7,386.5,861.8,368.6,1326.4c-18.8,484.3-167.7,904-469,1321l-14.3,19.7h77.1
		c87,0,121.1,11.7,138.1,49.3c22.4,49.3,9.9,94.2-34.1,116.6c-20.6,10.8-64.6,13.5-218.8,13.5h-193.7l-28.7-26l-29.6-26v-206.3
		c0-206.3,0-206.3,21.5-229.6c26-27.8,71.7-37.7,100.4-23.3c41.3,21.5,52.9,44.8,52.9,112.1l0.9,62.8l26-31.4
		c37.7-44.8,155.1-243,193.7-327.3c86.1-187.4,148.9-397.3,179.4-600.9c12.6-78.9,16.1-159.6,16.1-300.4
		c0-218.8-13.5-332.7-61.9-524.6c-93.3-365.9-282.5-695-556-968.5c-273.5-274.4-601.7-462.7-968.5-556
		c-191-48.4-305.8-61.9-524.6-61.9c-212.5,0-318.4,11.7-506.7,57.4c-377.5,92.4-747.9,305.8-1013.4,583.8
		c-313,327.3-504.9,717.4-574.8,1164.9c-22.4,144.4-22.4,465.4,0,609.8c17.9,119.3,64.6,305.8,99.5,403.6
		C803,3942.1,1376,4455,2065.6,4618.3c207.2,49.3,430.5,64.6,712.1,49.3l84.3-4.5l26,29.6c37.7,42.1,31.4,101.3-15.2,131.8
		C2836.9,4847.8,2532.9,4864,2384.9,4849.6z"/>
	<path class="st2" d="M3118.5,4740.2c-24.2-21.5-29.6-32.3-29.6-61.9c0-44.8,29.6-79.8,72.6-87.9c83.4-15.2,137.2,88.8,76.2,149.8
		C3201.9,4776.1,3157.9,4776.1,3118.5,4740.2z"/>
	<path class="st2" d="M2356.2,4260.4c-235.9-30.5-466.3-106.7-652.9-216.1c-81.6-47.5-98.6-67.3-98.6-110.3c0-39.5,12.6-61,44.8-78
		c35.9-18.8,52-17,98.6,9c186.5,104,341.7,165,520.1,202.7c126.4,27.8,426,30.5,551.5,5.4c410.7-81.6,749.7-298.6,985.6-628.7
		c202.7-284.3,306.7-660,276.2-1001.7c-11.7-127.3-44.8-288.8-79.8-389.2c-35.9-103.1-133.6-289.7-198.2-381.1
		c-77.1-109.4-252-283.4-359.6-359.6c-365.9-257.4-825-345.3-1251.9-240.3c-802.6,198.2-1300.3,989.2-1134.4,1802.6
		c33.2,161.4,102.2,339.9,183.8,473.5c39.5,65.5,40.4,97.8,5.4,137.2c-21.5,24.2-32.3,29.6-62.8,28.7
		c-46.6-1.8-61.9-15.2-112.1-101.3c-173.1-295-254.7-672.6-219.7-1015.2c41.3-414.3,218.8-780.2,516.6-1067.2
		c258.3-247.5,544.4-392.8,904.9-457.4c156-27.8,402.7-27.8,564.1,0c374,65.5,687.8,231.4,947,500.4
		c248.4,258.3,394.6,548.8,457.4,904.9c28.7,163.2,28.7,400,0,563.2c-62.8,356-209,646.6-457.4,904.9
		c-256.5,266.3-579.3,437.6-942.5,500.4C2707.7,4270.3,2483.6,4276.6,2356.2,4260.4z"/>
	<path class="st2" d="M2505.1,3907.1c-32.3-25.1-39.5-51.1-39.5-131.8c0-77.1,0.9-78.9,30.5-108.5c34.1-34.1,62.8-38.6,104-17
		c38.6,19.7,44.8,38.6,44.8,134.5c0,83.4-0.9,87.9-26,113C2587.6,3927.7,2535.6,3932.2,2505.1,3907.1z"/>
	<path class="st2" d="M1348.2,3767.2c-33.2-33.2-38.6-62.8-17.9-103.1c13.5-25.1,47.5-45.7,77.1-45.7c45.7,0,89.7,43.9,89.7,88.8
		c0,30.5-20.6,64.6-45.7,78C1411,3805.8,1381.4,3800.4,1348.2,3767.2z"/>
	<path class="st2" d="M3340,3460.5c-14.3-7.2-165-150.7-332.7-319.3l-306.7-305.8l-43,15.2c-54.7,18.8-149.8,18.8-204.5,0l-43-15.2
		l-154.2,153.4c-84.3,83.4-162.3,156.9-173.1,162.3c-76.2,38.6-156.9-42.1-118.4-118.4c5.4-10.8,78.9-88.8,162.3-173.1l153.4-154.2
		l-15.2-43c-37.7-111.2-9-235,74.4-318.4c87-87,212.5-113,330-69.1c70.8,26,145.3,100.4,171.3,171.3c24.2,62.8,26,155.1,5.4,216.1
		l-15.2,43l313.9,314.8c208.1,209,316.6,323.7,320.2,339.9c9,38.6-15.2,86.1-52,101.3C3374.1,3477.5,3373.2,3477.5,3340,3460.5z
		 M2624.3,2667.7c78-46.6,74.4-177.6-5.4-219.7c-87.9-44.8-189.2,14.3-189.2,110.3c0,76.2,50.2,127.3,125.6,127.3
		C2579.5,2685.7,2607.3,2678.5,2624.3,2667.7z"/>
	<path class="st2" d="M1218.2,2623.8c-34.1-35-35.9-86.1-4.5-120.2c27.8-30.5,52-35.9,140.8-31.4c69.1,2.7,73.5,4.5,98.6,32.3
		c28.7,32.3,32.3,61.9,12.6,100.4c-19.7,38.6-38.6,44.8-134.5,44.8C1247.8,2649.8,1243.3,2648.9,1218.2,2623.8z"/>
	<path class="st2" d="M3661,2618.4c-28.7-28.7-31.4-35-26.9-69.9c3.6-25.1,12.6-43.9,28.7-57.4c20.6-18.8,33.2-20.6,113-20.6
		c87.9,0,90.6,0.9,116.6,26c43.9,43.9,31.4,114.8-25.1,143.5c-10.8,5.4-54.7,9.9-96.9,9.9C3693.3,2649.8,3692.4,2649.8,3661,2618.4z
		"/>
	<path class="st2" d="M2514,1475c-38.6-15.2-48.4-43-48.4-137.2c0-86.1,0.9-88.8,26-114.8c43.9-43.9,114.8-31.4,143.5,25.1
		c5.4,10.8,9.9,54.7,9.9,96.9c0,77.1-0.9,78.9-30.5,108.5C2583.1,1484.9,2553.5,1491.1,2514,1475z"/>
</g>
</svg>
