<?xml version="1.0" encoding="utf-8"?>
<!-- Generator: Adobe Illustrator 25.4.1, SVG Export Plug-In . SVG Version: 6.00 Build 0)  -->
<svg version="1.1" id="Layer_1" xmlns="http://www.w3.org/2000/svg" xmlns:xlink="http://www.w3.org/1999/xlink" x="0px" y="0px"
	 viewBox="0 0 448 512" style="enable-background:new 0 0 448 512;" xml:space="preserve">
<style type="text/css">
	.st0{fill:#FFFFFF;}
</style>
<path class="st0" d="M135.2,17.7L128,32H32C14.3,32,0,46.3,0,64s14.3,32,32,32h384c17.7,0,32-14.3,32-32s-14.3-32-32-32h-96
	l-7.2-14.3C307.4,6.8,296.3,0,284.2,0H163.8C151.7,0,140.6,6.8,135.2,17.7z M416,128H32l21.2,339c1.6,25.3,22.6,45,47.9,45h245.8
	c25.3,0,46.3-19.7,47.9-45L416,128z"/>
</svg>
