<?xml version="1.0" encoding="utf-8"?>
<!-- Generator: Adobe Illustrator 25.4.1, SVG Export Plug-In . SVG Version: 6.00 Build 0)  -->
<svg version="1.1" id="Layer_1" xmlns="http://www.w3.org/2000/svg" xmlns:xlink="http://www.w3.org/1999/xlink" x="0px" y="0px"
	 viewBox="0 0 512 512" style="enable-background:new 0 0 512 512;" xml:space="preserve">
<g transform="translate(0.000000,512.000000) scale(0.100000,-0.100000)">
	<path d="M2338.9,5096.6c-309.6-52.8-614.2-221.1-810.8-448.4c-480.3-558.9-453.3-1364.8,61.4-1879.5
		c513.5-513.5,1321.8-540.5,1875.8-63.9c172,147.4,329.2,386.9,400.5,605.6c207.6,636.3-74.9,1334.1-664.6,1642.4
		C2931,5094.1,2622.6,5144.5,2338.9,5096.6z M2711.1,4708.4c527-81.1,896.7-579.8,820.6-1104.3
		c-103.2-701.4-883.2-1069.9-1483.9-700.2c-344,211.3-528.2,621.6-453.3,1009.8C1697.7,4444.3,2182.9,4789.5,2711.1,4708.4z"/>
	<path d="M3853.5,2558.7c-28.3-13.5-62.6-43-74.9-63.9c-62.6-104.4-45.5-172,79.8-307.1c275.2-299.7,439.8-680.5,465.6-1084.7
		c11.1-160.9,0-192.9-98.3-285c-375.9-351.3-1481.5-515.9-2408.9-357.5c-401.7,67.6-756.7,203.9-915.2,350.1
		c-103.2,97-115.5,129-105.6,285c24.6,401.7,189.2,792.3,455.7,1079.8c98.3,108.1,121.6,151.1,113,222.3
		c-14.7,131.4-163.4,216.2-276.4,157.2c-46.7-24.6-181.8-167.1-270.3-287.4c-250.6-337.8-394.3-744.4-416.4-1175.6
		c-11.1-233.4,30.7-355,179.3-513.5c527-560.2,2154.6-750.6,3279.9-382c308.3,100.7,533.1,228.5,679.3,384.5
		c147.4,156,189.2,277.6,178.1,511c-27,518.4-234.6,1009.8-578.6,1368.5C4016.9,2588.1,3955.5,2609,3853.5,2558.7z"/>
</g>
</svg>
